<svg width="1457" height="591" viewBox="0 0 1457 591" fill="none" xmlns="http://www.w3.org/2000/svg">
<path d="M35.8805 139.861C32.3837 138.686 34.1478 144.379 30.6669 145.072C27.1932 145.778 23.0204 147.512 25.8059 148.214C28.5854 148.904 34.8348 147.863 35.5401 146.819C36.2344 145.778 36.9274 140.209 35.8805 139.861Z" fill="white"/>
<path d="M4.07486 151.434V151.121H2.5076V150.807H1.56725V150.494H0.940352V150.18H0.313451V149.867H0V148.299H0.626901V147.986H1.2538V147.672H2.5076V147.359H9.71697V147.672H10.6573V147.986H11.2842V148.299H12.2246V148.613H13.1649V148.926H14.1053V149.867H13.4784V150.18H12.538V150.494H11.5977V150.807H10.3439V151.121H8.77661V151.434" fill="white"/>
<path d="M32.0604 117.253C30.6487 117.677 34.4934 120.034 35.8807 120.034C37.279 120.034 39.713 116.206 36.9277 116.206C34.148 116.206 35.5403 116.206 32.0604 117.253Z" fill="white"/>
<path d="M203.502 154.118C200.657 153.18 204.542 158.294 206.276 159.338C208.016 160.385 211.494 160.385 211.848 162.119C212.19 163.869 213.234 168.035 214.975 167.687C216.715 167.336 216.715 163.517 215.327 162.119C213.935 160.733 208.721 156.554 207.674 156.554C206.627 156.554 204.542 154.469 203.502 154.118ZM346.077 165.602C346.077 167.471 349.55 167.687 351.632 166.646C353.725 165.602 356.857 164.913 358.249 164.561C359.637 164.21 358.944 166.289 362.069 166.289C365.204 166.289 369.028 167.336 370.075 166.994C371.116 166.646 374.244 162.473 371.805 162.119C369.37 161.774 365.552 159.338 363.471 157.253C361.383 155.168 356.512 160.037 351.983 161.774C347.466 163.517 346.077 162.828 346.077 165.602ZM382.243 192.384C383.036 193.97 386.769 192.732 388.851 190.641C390.935 188.556 395.458 187.866 396.856 186.113C398.229 184.383 399.282 184.737 402.755 183.342C406.238 181.947 409.021 181.605 407.629 179.858C406.238 178.125 398.934 179.858 397.894 179.172C396.856 178.476 389.543 186.819 389.543 186.819C389.543 186.819 383.29 189.255 382.936 190.296C382.591 191.337 381.202 190.296 382.243 192.384ZM362.765 192.384C366.245 192.763 366.245 187.866 365.897 186.468C365.552 185.072 365.552 179.172 366.95 178.125C368.323 177.081 370.075 173.952 373.896 173.597C377.717 173.249 380.162 176.033 379.804 179.172C379.457 182.301 380.503 185.427 381.895 185.427C383.29 185.427 387.456 182.991 386.064 180.906C384.676 178.818 387.105 171.857 387.105 174.3C387.105 176.733 389.898 178.476 391.634 178.125C393.377 177.777 389.898 171.512 387.456 171.167C385.023 170.816 380.162 170.816 379.115 171.167C378.071 171.512 372.156 169.421 369.37 169.775C366.599 170.123 362.424 171.167 361.032 173.952C359.637 176.733 361.032 181.947 360.684 184.032C360.342 186.113 359.637 192.036 362.765 192.384ZM44.2268 88.7253C44.2268 88.7253 44.2268 88.7253 46.3191 90.4717C48.3995 92.2024 51.8794 92.8953 55.0064 93.2464C58.1459 93.6007 58.1459 91.5157 55.7057 89.4276C53.279 87.3458 52.5737 87.6781 50.4871 87.3458C48.3995 86.9915 48.0591 84.9034 42.4991 84.9034C36.9269 84.9034 37.6259 82.1224 36.9269 80.7304C36.2338 79.3352 41.7938 80.0312 43.1921 80.3761C44.5854 80.7304 50.1394 76.1968 50.1394 76.1968C50.1394 76.1968 59.1841 72.7323 60.2263 73.4221C61.2729 74.1149 66.4915 72.7323 68.9183 72.03C71.3585 71.3371 72.7446 67.512 72.7446 67.512C72.7446 67.512 75.8778 68.5592 77.619 70.293C79.3527 72.03 83.1853 70.293 84.2234 70.293C85.2644 70.293 90.484 73.7764 90.484 73.7764C90.484 73.7764 97.4372 73.7764 100.218 73.4221C103.003 73.074 110.303 73.074 113.09 73.7764C115.865 74.4661 128.385 75.1558 129.783 75.1558C131.17 75.1558 138.117 77.592 142.643 76.551C147.17 75.507 149.25 77.2502 150.297 77.592C151.33 77.9462 152.377 77.9462 154.123 80.0312C155.857 82.1224 157.595 80.3761 160.036 78.9872C162.463 77.592 162.122 76.1968 162.122 76.1968C162.122 76.1968 162.122 76.1967 164.21 75.8582C166.295 75.507 167.682 76.5511 173.596 76.9053C179.509 77.2502 178.115 75.8582 182.283 74.4661C186.461 73.074 190.635 76.1967 192.028 75.8582C193.415 75.507 195.154 72.7323 196.201 74.1149C197.247 75.507 198.975 78.2943 198.975 78.2943C198.975 78.2943 203.502 74.8173 204.888 74.8173C206.276 74.8173 210.46 76.1967 212.894 75.8582C215.327 75.507 224.713 75.507 226.801 77.2502C228.881 78.9872 234.101 78.6392 236.881 80.3761C239.661 82.1224 242.447 78.9871 241.055 78.2943C239.661 77.5919 236.188 74.8173 236.188 74.8173C236.188 74.8173 230.967 68.5592 230.274 67.512C229.586 66.4711 228.539 66.4711 227.147 69.2521C225.755 72.03 220.541 72.03 214.628 72.3811C208.721 72.7323 212.541 69.6033 205.934 69.2521C199.328 68.9009 201.767 66.4711 203.848 66.4711C205.934 66.4711 207.323 62.2918 208.016 59.8525C208.721 57.4164 211.149 57.7676 216.021 58.1187C220.877 58.4667 222.275 57.4164 227.147 58.1187C232.014 58.8148 231.666 56.0338 236.533 56.3755C241.401 56.7267 238.968 57.4164 241.753 59.1628C244.534 60.8997 246.274 60.5549 250.094 62.2918C253.92 64.0319 252.534 64.0319 254.273 64.3862C256.013 64.7279 261.925 63.687 265.393 63.3358C268.874 62.9941 271.66 62.6335 273.4 64.7279C275.139 66.816 274.793 69.2521 277.232 70.986C279.659 72.7323 275.832 64.7279 275.832 61.9469C275.832 59.1628 280.701 61.5958 283.833 61.5958C286.965 61.5958 290.432 60.5548 291.133 61.9469C291.832 63.3358 286.612 65.4271 289.739 68.5592C292.873 71.6913 294.959 72.7322 297.74 72.7322C300.519 72.7322 306.778 73.4221 303.999 77.2502C301.218 81.0753 293.923 80.7304 291.485 80.7304C289.046 80.7304 284.872 82.1224 285.919 84.2074C286.965 86.2955 292.525 85.2515 296.346 85.2515C300.179 85.2515 311.993 86.2955 315.121 85.2515C318.258 84.2074 317.559 80.0312 314.08 78.9872C310.605 77.9463 313.386 75.8582 316.87 76.551C320.352 77.2502 323.819 75.507 323.123 76.551C322.43 77.592 323.477 80.0312 323.477 82.8153C323.477 85.5963 324.512 87.3458 326.944 86.6372C329.383 85.9474 329.731 85.5963 332.166 85.2515C334.605 84.9034 333.21 78.9871 331.812 75.8582C330.436 72.7322 329.383 70.9859 329.731 69.2521C330.085 67.512 333.906 67.1672 335.984 68.9009C338.078 70.6442 340.858 74.1149 340.858 74.1149C340.858 74.1149 345.036 76.5511 346.425 79.3352C347.817 82.1224 348.165 81.4264 350.945 79.6832C353.725 77.9462 354.418 78.2943 356.857 80.0312C359.295 81.7713 357.549 85.2514 357.549 86.2955C357.549 87.3458 361.032 86.2955 361.718 84.2074C362.424 82.1224 365.204 82.1224 366.95 81.4264C368.677 80.7303 368.677 76.551 368.677 76.551C368.677 76.551 364.157 75.507 359.637 75.8582C355.123 76.1967 353.725 75.507 350.255 73.074C346.776 70.6442 348.857 68.9009 347.118 66.4711C345.378 64.0319 352.685 62.6335 357.205 60.5549C361.718 58.4667 366.245 59.8525 365.204 65.0728C364.157 70.293 363.471 69.6033 368.677 68.5592C373.896 67.512 368.323 62.9941 370.765 62.6335C373.203 62.2918 379.457 61.2509 381.55 61.5958C383.632 61.9469 395.104 60.5549 397.894 60.5549C400.677 60.5549 405.191 62.9941 408.322 64.7279C411.457 66.4711 419.801 68.9009 421.882 69.9418C423.97 70.9859 438.573 73.074 439.968 73.4221C441.363 73.7764 441.363 77.9462 442.748 81.4264C444.146 84.9034 447.967 82.4705 449.356 82.4705C450.748 82.4705 455.619 84.9034 457.007 86.6372C458.396 88.3867 468.834 89.7694 468.834 89.7694C468.834 89.7694 466.401 92.8953 465.355 93.9393C464.314 94.9865 461.875 95.6857 459.794 97.0777C457.703 98.4666 455.268 96.7266 452.481 94.9865C449.707 93.2464 444.83 92.2024 443.795 92.8953C442.748 93.6007 443.454 94.9865 444.146 96.0274C444.83 97.0777 449.356 98.4666 452.143 100.555C454.92 102.649 454.227 104.734 454.575 107.512C454.92 110.296 451.788 106.465 448.315 105.775C444.83 105.082 444.488 108.55 444.488 108.55C444.488 108.55 439.968 108.211 437.881 108.211C435.796 108.211 437.881 108.211 434.056 105.424C430.236 102.649 430.928 107.17 428.841 105.775C426.759 104.38 424.675 102.295 423.622 102.988C422.575 103.687 419.102 99.8618 417.011 100.207C414.923 100.555 406.589 99.1595 404.508 99.8618C402.411 100.555 400.677 100.555 398.934 101.254C397.188 101.953 396.502 96.3785 397.543 94.6447C398.583 92.8953 401.022 92.5567 405.542 93.6007C410.056 94.6447 410.41 93.6007 411.457 91.8543C412.497 90.1205 413.535 88.3867 418.403 86.9915C423.283 85.5963 418.064 84.5523 416.676 83.8625C415.275 83.1633 413.535 81.7713 412.497 83.8625C411.457 85.9475 409.021 88.3867 409.021 88.3867C409.021 88.3867 406.238 88.3867 402.411 88.0356C398.583 87.6782 401.37 86.2955 403.11 85.5963C404.843 84.9034 406.937 80.7304 405.191 79.6832C403.454 78.6392 402.755 77.9462 399.63 78.6391C396.502 79.3351 398.583 76.1967 396.502 75.1558C394.418 74.1149 395.104 75.8582 395.104 77.2502C395.104 78.6392 391.976 78.2943 391.976 78.2943C391.976 78.2943 387.105 77.5919 385.371 78.2943C383.632 78.9871 380.503 80.3761 381.55 81.4264C382.591 82.4704 386.064 82.4705 387.105 85.5963C388.152 88.7253 382.591 89.4276 381.55 89.7694C380.503 90.1205 376.331 91.5157 376.331 91.5157C376.331 91.5157 372.156 90.4717 368.677 90.4717C365.204 90.4717 364.157 90.8134 364.856 92.2023C365.552 93.6007 367.292 92.8953 368.323 92.8953C369.37 92.8953 369.37 94.6447 372.504 93.9393C375.636 93.2464 374.943 92.2023 377.717 94.9865C380.503 97.7706 383.29 97.4195 387.81 99.8618C392.324 102.295 387.105 105.082 384.675 105.082C382.243 105.082 382.243 102.988 380.848 100.909C379.457 98.8115 373.896 101.254 373.896 101.254C373.896 101.254 369.37 103.687 366.95 103.687C364.511 103.687 362.765 103.336 365.897 100.909C369.028 98.4666 362.069 98.1155 362.069 94.6447C362.069 91.1614 360.684 98.1155 360.684 99.8618C360.684 101.596 357.904 100.207 351.983 100.909C346.077 101.596 347.118 103.687 339.463 108.55C331.812 113.425 330.085 114.469 330.771 118.993C331.474 123.514 333.21 122.119 336.338 122.818C339.463 123.514 338.42 128.728 340.858 128.374C343.297 128.035 345.037 126.289 349.904 128.728C354.772 131.161 357.205 131.861 363.116 132.898C369.028 133.939 372.852 135.686 375.99 134.99C379.115 134.29 381.202 135.338 381.202 137.774C381.202 140.21 383.29 140.558 382.936 143.69C382.591 146.819 386.769 140.896 386.769 140.896C386.769 140.896 388.496 146.132 387.105 146.819C385.722 147.512 387.456 150.638 389.199 150.302C390.935 149.945 393.377 151.343 395.458 149.597C397.543 147.863 394.418 142.649 394.418 140.558C394.418 138.473 392.324 137.429 391.283 135.338C390.236 133.249 394.063 132.898 395.458 134.99C396.856 137.078 399.282 135.338 401.718 133.597C404.15 131.861 404.15 128.728 404.15 128.728C404.15 128.728 399.981 123.16 396.856 121.774C393.715 120.379 395.104 120.034 398.229 119.338C401.37 118.639 398.229 117.598 398.934 113.77C399.63 109.942 399.63 107.512 401.37 107.512C403.11 107.512 409.363 106.465 414.582 106.819C419.801 107.17 422.236 110.989 425.716 111.34C429.189 111.679 434.749 112.381 435.796 114.118C436.837 115.855 431.969 116.206 434.408 118.993C436.837 121.774 437.188 121.426 439.62 122.47C442.056 123.514 444.83 122.818 447.967 118.639C451.108 114.469 452.481 114.118 453.522 114.814C454.575 115.507 461.186 123.16 462.922 124.906C464.662 126.64 468.135 130.459 468.48 132.209C468.834 133.939 473.702 133.939 475.087 133.939C476.482 133.939 481.695 137.774 482.387 139.862C483.093 141.95 484.481 142.649 488.995 143.69C493.521 144.731 488.995 148.553 487.954 150.638C486.914 152.732 486.221 153.428 484.826 155.861C483.441 158.294 484.826 155.861 486.563 156.902C488.302 157.952 488.995 159.338 491.782 158.648C494.568 157.952 495.954 158.648 497 160.733C498.041 162.828 499.433 164.561 500.48 166.289C501.514 168.035 500.48 170.816 499.082 169.083C497.699 167.336 493.167 168.377 493.167 168.377C493.167 168.377 491.086 170.465 490.393 169.421C489.7 168.377 488.302 166.994 485.867 167.687C483.441 168.377 481.008 167.687 478.222 168.035C475.435 168.377 474.394 166.646 476.134 165.251C477.874 163.869 478.222 158.648 481.695 156.554C485.174 154.469 484.133 151.343 481.695 151.343C479.259 151.343 478.222 154.469 476.827 155.168C475.435 155.861 472.655 155.861 470.216 157.601C467.787 159.338 461.875 158.648 464.314 159.338C466.746 160.037 460.835 162.828 458.747 162.828C456.656 162.828 457.355 158.294 457.355 156.554C457.355 154.814 454.575 157.601 454.575 157.601C454.575 157.601 449.008 154.469 446.924 156.554C444.83 158.648 441.705 159.689 439.275 161.774C436.837 163.869 431.276 167.336 431.276 167.336C431.276 167.336 433.361 166.289 437.536 165.251C441.705 164.21 441.363 164.561 444.83 162.828C448.315 161.081 451.788 160.385 454.227 163.517C456.656 166.646 453.19 168.377 453.19 168.377C453.19 168.377 454.575 170.816 455.96 171.512C457.355 172.212 457.703 170.816 460.136 169.421C462.568 168.035 461.527 172.212 462.226 173.597C462.922 174.993 465.355 174.993 466.746 173.249C468.135 171.512 469.176 170.123 470.216 171.167C471.263 172.212 472.313 174.641 473.348 177.081C474.394 179.517 466.047 180.213 464.662 180.558C463.273 180.906 456.656 182.301 455.619 182.649C454.575 182.991 451.108 186.113 448.315 186.113C445.535 186.113 445.877 181.947 445.535 179.517C445.181 177.081 441.705 179.858 441.363 180.906C441.015 181.947 437.881 181.605 435.448 181.947C433.016 182.301 428.841 184.737 428.841 187.512C428.841 190.296 431.969 191.688 430.928 193.077C429.888 194.472 423.622 195.516 421.189 194.82C418.757 194.121 415.275 195.861 416.321 197.256C417.362 198.642 416.676 200.73 414.237 200.388C411.795 200.037 411.457 202.476 412.497 204.207C413.535 205.947 409.363 209.421 408.322 208.032C407.282 206.646 405.191 205.947 405.191 208.032C405.191 210.12 405.884 211.86 407.977 214.644C410.056 217.425 403.454 219.172 401.022 221.257C398.583 223.342 390.236 230.296 386.769 231.691C383.29 233.077 383.29 237.604 385.023 239.335C386.769 241.084 388.851 248.377 389.898 250.816C390.935 253.259 389.543 260.203 386.415 259.865C383.29 259.513 385.023 255.34 381.895 254.299C378.764 253.259 377.024 246.994 376.331 242.815C375.636 238.645 374.943 241.084 372.852 242.464C370.765 243.859 368.677 239.689 367.636 238.645C366.599 237.604 360.684 239.335 356.512 238.999C352.337 238.645 350.945 240.73 350.945 241.774C350.945 242.815 350.255 245.944 346.425 243.859C342.604 241.774 341.899 241.774 338.078 241.774C334.251 241.774 330.771 241.42 330.085 242.815C329.383 244.21 325.559 247.342 323.123 248.038C320.685 248.734 316.171 252.214 318.258 252.901C320.352 253.603 320.352 258.469 318.951 261.247C317.559 264.034 317.904 268.907 318.6 273.773C319.299 278.647 323.477 281.775 327.298 284.905C331.119 288.039 332.517 289.083 336.338 286.297C340.169 283.515 341.545 285.255 342.604 285.602C343.639 285.952 346.425 283.859 345.378 280.732C344.338 277.607 346.776 274.817 349.904 275.168C353.03 275.519 357.549 274.124 359.985 274.478C362.424 274.817 363.809 281.422 359.985 284.208C356.164 286.997 358.248 291.172 357.549 294.304C356.857 297.428 353.725 298.12 357.549 298.12C361.383 298.12 360.342 298.819 362.765 299.162C365.204 299.516 367.636 297.079 370.075 296.725C372.504 296.388 378.764 301.947 377.717 304.737C376.683 307.52 375.636 312.382 375.99 316.902C376.331 321.426 377.717 321.78 378.413 323.165C379.115 324.561 381.895 327.697 385.023 326.304C388.152 324.906 391.283 323.862 392.324 322.47C393.377 321.085 399.981 324.906 399.282 325.957C398.583 326.991 401.718 328.041 403.796 326.991C405.884 325.957 406.937 324.206 409.021 321.426C411.103 318.641 414.582 316.215 416.321 315.863C418.064 315.522 422.236 311.34 425.01 312.044C427.8 312.732 423.97 316.215 423.622 318.297C423.283 320.379 423.622 326.304 425.01 326.65C426.408 326.991 425.716 322.47 427.449 319.344C429.189 316.215 432.662 314.465 434.408 314.465C436.141 314.465 437.536 321.78 439.968 319.692C442.401 317.604 447.268 317.949 448.315 320.037C449.356 322.126 450.4 323.165 450.4 323.165C450.4 323.165 452.143 321.78 452.143 320.037C452.143 318.297 457.703 316.551 461.186 318.641C464.662 320.729 463.273 321.426 465.003 321.78C466.746 322.126 468.48 317.256 469.527 316.902C470.567 316.551 469.527 322.47 467.094 325.603C464.662 328.744 469.176 327.697 469.176 327.697C469.176 327.697 469.176 327.697 470.216 328.744C471.263 329.777 474.742 327.697 476.134 329.777C477.532 331.866 479.968 332.559 482.049 336.394C484.133 340.212 487.268 339.165 491.427 338.475C495.606 337.776 500.828 340.563 504.993 345.088C509.165 349.606 508.479 353.086 511.253 353.086C514.04 353.086 514.726 356.907 514.726 358.296C514.726 359.685 508.479 362.826 504.993 363.52C501.514 364.219 501.514 367.702 507.081 366.655C512.645 365.608 510.212 363.52 513.685 362.479C517.168 361.432 520.647 363.861 517.519 368.038C514.381 372.208 508.125 372.559 513.685 373.249C519.252 373.954 516.127 372.559 519.252 368.389C522.381 364.219 522.033 365.608 524.13 365.608C526.211 365.608 530.721 366.655 532.467 368.038C534.216 369.436 538.721 371.518 541.51 373.249C544.288 374.995 547.77 374.296 549.851 373.601C551.933 372.913 557.854 375.689 559.938 378.472C562.02 381.26 567.245 381.608 569.674 382.649C572.106 383.692 575.937 387.862 576.278 391.345C576.629 394.816 572.457 402.128 572.106 403.868C571.765 405.602 566.204 411.865 560.985 416.042C555.766 420.212 558.891 425.087 559.246 427.17C559.587 429.258 555.766 436.897 556.813 438.644C557.854 440.384 555.412 444.209 553.331 446.649C551.246 449.085 549.851 453.597 548.466 455.679C547.077 457.773 542.551 457.083 538.379 458.131C534.216 459.165 532.113 460.213 532.113 460.213C532.113 460.213 524.813 463.696 520.647 466.47C516.478 469.257 522.033 474.129 519.945 477.951C517.861 481.786 515.773 481.434 513.685 485.95C511.601 490.474 510.567 486.658 508.814 487.693C507.081 488.74 506.04 491.515 505.689 494.301C505.348 497.086 501.872 499.866 497.352 504.043C492.828 508.213 490.039 507.517 485.174 506.131C480.306 504.736 481.008 492.906 480.306 494.644C479.613 496.383 479.968 502.648 480.66 503.701C481.344 504.736 483.441 508.564 485.174 509.606C486.914 510.652 486.563 512.377 485.174 514.123C483.785 515.864 479.968 522.134 478.566 522.476C477.181 522.82 466.401 524.215 464.314 523.175C462.226 522.134 461.186 525.605 461.527 527.7C461.875 529.788 463.615 532.214 459.794 531.52C455.96 530.827 450.748 528.391 450.748 530.119C450.748 531.876 451.788 535.697 453.882 535.697C455.96 535.697 458.054 534.302 457.007 536.738C455.96 539.174 453.19 541.262 451.788 542.309C450.4 543.35 448.66 546.817 445.181 549.255C441.705 551.697 441.705 553.082 442.401 554.129C443.103 555.17 448.315 554.478 449.356 555.17C450.4 555.869 448.315 560.741 446.924 561.782C445.535 562.823 439.62 567.693 437.188 569.088C434.749 570.48 434.749 574.65 435.448 576.738C436.141 578.826 441.705 584.049 444.83 585.084C447.967 586.131 454.575 585.777 453.882 586.824C453.19 587.865 445.535 588.912 444.488 589.26C443.454 589.602 437.881 591 435.097 591C432.32 591 427.101 588.213 426.054 588.213C425.01 588.213 426.759 586.824 430.236 584.049C433.709 581.256 428.841 578.127 428.148 581.962C427.449 585.777 426.054 586.824 424.324 586.824C422.575 586.824 420.497 584.378 419.45 583.337C418.403 582.303 413.889 581.256 414.582 577.08C415.275 572.904 412.497 573.264 410.41 571.521C408.322 569.781 413.196 568.398 412.497 566.645C411.795 564.911 408.67 565.952 408.322 563.516C407.977 561.086 411.103 557.606 411.457 556.559C411.795 555.518 409.363 553.437 409.021 551.697C408.67 549.952 410.41 548.213 412.842 545.438C415.275 542.648 417.011 539.174 417.011 538.127C417.011 537.086 415.275 533.255 415.275 530.48C415.275 527.7 417.011 526.652 417.716 522.82C418.403 519.005 415.275 520.394 415.275 517.259C415.275 514.123 418.757 515.171 418.064 512.048C417.362 508.912 419.801 506.818 420.841 504.736C421.882 502.648 422.929 499.171 424.324 496.731C425.716 494.301 422.929 488.74 422.929 487.693C422.929 486.658 427.449 485.263 425.361 483.169C423.283 481.087 426.054 479.34 428.148 477.597C430.236 475.869 427.8 470.994 428.841 464.743C429.888 458.478 430.928 447.69 430.928 446.649C430.928 445.608 431.276 441.425 429.537 438.644C427.8 435.858 425.716 433.776 423.283 432.735C420.841 431.688 417.716 428.552 415.97 428.217C414.237 427.865 405.884 424.736 405.884 419.87C405.884 414.988 399.981 411.16 399.282 407.689C398.583 404.216 393.377 396.563 393.023 393.086C392.675 389.612 385.371 388.564 384.331 384.733C383.29 380.905 387.81 378.124 388.496 375.689C389.199 373.249 386.064 368.038 385.722 366.301C385.371 364.561 390.935 359.685 393.023 358.652C395.104 357.603 396.856 353.086 398.229 353.086C399.63 353.086 399.282 349.252 400.677 345.423C402.063 341.605 399.981 336.394 398.934 335.688C397.894 334.992 396.856 330.471 395.104 329.088C393.377 327.697 389.898 328.383 389.898 328.383C389.898 328.383 390.59 331.512 387.456 333.264C384.331 334.992 383.632 332.907 382.591 331.866C381.55 330.826 377.717 330.471 375.99 328.744C374.244 326.991 371.464 324.561 369.37 323.523C367.292 322.47 364.157 321.426 364.511 317.256C364.856 313.085 359.985 310.647 358.59 309.957C357.205 309.248 354.418 307.52 352.685 308.558C350.945 309.602 347.817 306.48 345.378 306.823C342.946 307.164 338.078 302.646 336.338 300.903C334.605 299.162 333.21 296.725 330.085 296.725C326.944 296.725 326.606 297.769 324.512 300.207C322.43 302.646 319.299 298.472 318.258 297.428C317.212 296.388 314.431 296.034 310.605 296.034C306.778 296.034 303.999 290.824 302.613 290.127C301.218 289.428 291.485 284.905 289.046 283.515C286.612 282.121 284.173 276.902 285.214 275.519C286.261 274.124 283.485 269.603 283.485 269.603C283.485 269.603 278.608 264.034 276.872 264.034C275.139 264.034 269.573 254.299 266.44 251.518C263.314 248.734 256.013 242.464 254.615 239.335C253.227 236.209 252.873 231.337 249.407 233.779C245.926 236.209 248.702 238.645 252.18 241.42C255.661 244.21 254.967 246.994 259.833 250.816C264.7 254.651 262.62 258.469 264.7 260.203C266.792 261.95 274.093 266.123 270.967 268.907C267.833 271.685 264.7 265.423 263.314 265.078C261.925 264.727 258.787 264.034 259.14 261.949C259.492 259.865 256.36 258.118 253.92 254.989C251.487 251.863 250.447 253.603 247.326 253.603C244.186 253.603 246.974 249.775 248.702 248.038C250.447 246.298 246.974 243.859 244.882 243.169C242.8 242.464 240.015 234.478 237.234 229.6C234.441 224.727 232.362 222.304 229.233 222.639C226.108 222.991 224.713 219.172 222.628 217.78C220.541 216.384 217.408 209.772 213.935 206.298C210.46 202.815 207.323 196.212 207.674 192.384C208.016 188.556 209.061 178.818 209.061 176.388C209.061 173.952 207.323 168.035 207.323 166.994C207.323 165.954 205.581 164.21 204.195 163.869C202.807 163.517 198.975 158.648 195.848 158.648C192.721 158.648 190.635 155.168 191.676 152.732C192.722 150.302 188.901 146.132 187.157 146.132C185.42 146.132 182.635 141.602 181.589 139.169C180.55 136.73 177.768 136.73 178.463 138.119C179.156 139.514 178.115 141.95 179.849 142.649C181.589 143.339 182.989 148.904 181.589 149.597C180.202 150.302 177.068 147.512 173.596 145.778C170.115 144.038 171.508 137.078 171.508 135.338C171.508 133.597 166.636 131.86 164.55 131.86C162.463 131.86 160.383 132.209 160.036 127.687C159.683 123.16 153.418 120.73 151.33 120.73C149.25 120.73 138.117 116.206 134.638 116.206C131.17 116.206 125.257 113.071 123.165 114.469C121.083 115.855 117.257 112.03 115.172 112.03C113.09 112.03 113.09 113.425 109.257 115.855C105.43 118.294 104.044 116.899 101.958 118.639C99.8765 120.379 94.6579 122.119 96.3978 117.946C98.1256 113.77 98.1256 113.071 95.3509 114.118C92.5656 115.159 91.8726 117.946 91.8726 119.689C91.8726 121.426 87.0053 124.204 87.0053 124.204C87.0053 124.204 91.5187 124.558 93.2709 124.204C94.9983 123.866 93.6109 128.035 91.8726 129.079C90.1423 130.124 87.6983 132.898 84.9127 132.209C82.1384 131.509 81.7907 129.079 80.0567 128.728C78.3058 128.374 74.4917 131.161 68.2315 134.29C61.9659 137.429 63.0129 134.99 60.5789 136.037C58.1459 137.078 49.4464 140.21 46.3191 140.558C43.1921 140.896 43.8789 136.73 45.6264 136.73C47.3601 136.73 53.972 133.597 55.7057 132.557C57.4457 131.509 65.0995 128.728 67.1783 127.687C69.2709 126.64 72.7446 124.906 71.3585 122.818C69.9702 120.73 65.4446 123.866 65.4446 123.866C65.4446 123.866 61.9659 120.73 60.9315 120.034C59.8846 119.338 57.792 122.818 57.792 122.818C57.792 122.818 53.279 122.119 54.3196 118.294C55.3578 114.469 51.8794 114.469 51.1911 116.206C50.4871 117.946 44.5854 120.73 44.2268 118.993C43.8789 117.253 38.6665 113.77 37.2782 110.989C35.8799 108.211 38.6665 107.86 41.7938 105.424C44.9211 102.988 49.4464 102.295 53.279 102.649C57.099 102.988 59.532 98.4666 58.1459 98.1155C56.7463 97.7706 54.3196 97.4195 52.232 99.1595C50.1394 100.909 44.9211 100.555 44.9211 100.555C44.9211 100.555 37.2782 100.555 34.1472 98.4667C31.0189 96.3786 29.2803 93.2464 29.2803 93.2464C29.2803 93.2464 35.5395 90.8134 40.4065 90.4717L44.2268 88.7253Z" fill="white"/>
<path d="M375.284 106.355C374.344 107.393 379.456 108.901 380.384 107.512C381.315 106.129 377.601 103.793 375.284 106.355Z" fill="white"/>
<path d="M388.737 108.437C385.038 109.493 388.496 112.142 390.824 111.221C393.135 110.296 391.975 107.512 388.737 108.437Z" fill="white"/>
<path d="M215.787 51.8667C215.318 53.2713 217.867 53.2431 220.878 53.2431C223.899 53.2431 228.771 53.2431 230.163 52.5533C231.551 51.8667 238.511 50.2364 238.282 52.3213C238.039 54.4126 241.056 57.6544 242.672 57.1904C244.305 56.7264 247.551 53.7165 249.166 54.8734C250.794 56.0335 251.029 58.8145 252.651 59.5074C254.274 60.2034 258.677 60.2034 260.763 59.5074C262.845 58.8145 268.651 58.8145 271.203 59.2722C273.748 59.7488 281.164 61.1346 281.865 59.7488C282.558 58.3536 284.639 58.1185 284.873 56.7264C285.104 55.3312 286.262 50.9292 286.262 50.9292C286.262 50.9292 284.873 48.3834 282.558 49.5435C280.243 50.6973 279.536 51.3995 277.457 50.9292C275.374 50.4684 275.374 46.7499 271.661 47.4554C267.952 48.1451 267.253 50.2364 266.101 51.1613C264.937 52.0925 262.386 52.7822 261.468 52.3213C260.539 51.8667 255.196 48.8412 255.196 48.8412C255.196 48.8412 244.071 48.3834 243.612 46.9882C243.141 45.6024 241.296 43.2823 236.189 43.7495C231.086 44.2104 222.276 47.2296 220.878 47.2296C219.502 47.2296 222.51 50.0043 220.654 50.0043C218.796 50.0043 216.486 49.7724 215.787 51.8667Z" fill="white"/>
<path d="M255.197 42.3543C252.518 43.2448 253.111 45.8314 254.969 45.8314C256.819 45.8314 261.469 44.2104 262.846 45.3673C264.244 46.5274 267.722 45.6025 267.483 44.4362C267.253 43.2824 268.876 38.6359 266.101 38.407C263.316 38.1782 259.377 40.9591 255.197 42.3543Z" fill="white"/>
<path d="M286.496 39.3385C286.145 40.9908 288.347 42.3546 291.134 42.3546C293.924 42.3546 299.945 40.9594 300.404 42.1132C300.868 43.2827 300.18 44.2107 303.418 44.6653C306.668 45.1356 308.057 45.6028 309.913 45.6028C311.772 45.6028 311.065 42.5773 309.449 40.4954C307.82 38.4073 308.29 38.6488 304.119 37.4793C299.945 36.3255 295.765 36.3255 292.992 36.5481C290.2 36.7895 287.189 36.0904 286.496 39.3385Z" fill="white"/>
<path d="M291.133 50.0042C289.382 51.5405 291.133 56.2622 290.432 56.7262C289.739 57.1903 290.669 59.2721 292.525 58.8143C294.384 58.3534 295.3 53.9484 296.699 53.9484C298.091 53.9484 305.281 52.3212 306.433 54.8733C307.596 57.416 307.596 56.2622 310.841 56.5005C314.08 56.7262 316.635 53.2555 316.87 52.0923C317.096 50.9291 315.243 48.6121 310.841 49.0762C306.433 49.5433 292.991 48.3832 291.133 50.0042Z" fill="white"/>
<path d="M299.714 62.2914C298.104 63.3229 299.015 66.7027 301.566 66.9254C304.118 67.1668 308.525 65.3076 308.983 66.7028C309.448 68.0917 311.064 74.3528 315.243 72.2679C319.415 70.1798 319.187 68.3206 320.353 68.0917C321.503 67.8566 320.111 62.7554 318.259 61.5954C316.4 60.4385 310.371 61.1345 308.755 61.8337C307.126 62.5266 302.259 60.6705 299.714 62.2914Z" fill="white"/>
<path d="M325.915 64.3855C326.185 65.0189 328 66.2322 331.015 65.7745C334.024 65.3073 338.422 64.8402 340.506 64.6144C342.606 64.3855 343.064 60.8991 340.747 60.6703C338.422 60.4382 336.575 58.3533 334.494 59.0493C332.4 59.7485 325.207 62.7552 325.915 64.3855Z" fill="white"/>
<path d="M325.205 54.6381C324.195 57.0774 334.492 58.3534 333.329 55.5693C332.166 52.782 326.371 51.8666 325.205 54.6381Z" fill="white"/>
<path d="M327.064 42.8086C324.13 42.1031 319.187 41.197 319.187 40.4947C319.187 39.8018 317.789 43.7491 320.353 44.9029C322.901 46.0598 327.064 48.1448 330.085 49.3143C333.094 50.468 338.884 50.6969 340.746 53.017C342.604 55.3308 348.858 57.1901 348.858 57.1901L356.29 57.8924C356.29 57.8924 361.383 56.7261 366.709 57.1901C372.041 57.6541 379.924 58.3533 384.331 58.1181C388.738 57.8924 389.431 56.5003 389.898 55.5691C390.355 54.638 381.786 52.7819 379.692 53.017C377.601 53.2428 365.775 53.2428 362.305 53.017C358.825 52.7819 354.418 52.7819 351.632 53.017C348.858 53.2428 346.776 51.1672 344.686 50.004C342.604 48.8408 337.965 45.1349 335.188 44.6646C332.398 44.21 332.866 44.21 327.064 42.8086Z" fill="white"/>
<path d="M624.278 91.0457C623.344 92.5945 621.498 92.6729 623.344 95.918C625.206 99.1598 626.595 101.013 628.215 100.784C629.839 100.555 635.403 100.32 636.105 102.179C636.798 104.035 638.656 105.662 642.587 104.493C646.53 103.336 649.768 102.649 650.696 101.254C651.633 99.8621 657.899 99.6333 657.899 99.6333C657.899 99.6333 662.999 95.6859 661.137 94.0681C659.275 92.4409 654.884 91.2777 652.784 91.0457C650.696 90.8137 648.612 92.6729 643.982 92.6729C639.343 92.6729 636.327 94.5227 634.472 92.6729C632.626 90.8137 624.965 89.8888 624.278 91.0457Z" fill="white"/>
<path d="M533.806 117.573V117.259H533.179V116.946H532.866V116.632H532.552V116.319H532.239V115.692H531.925V115.064H531.612V114.124H531.298V113.183H530.985V112.556H530.358V112.87H529.418V113.183H528.791V113.497H528.164V113.81H527.223V114.124H526.283V114.437H525.343V114.751H523.149V114.437H522.835V113.81H522.522V113.497H522.208V113.183H521.895V112.87H521.581V112.556H520.954V112.243H520.641V111.929H520.328V111.616H519.701V111.302H519.387V110.989H518.76V110.675H518.447V110.362H517.82V110.048H517.193V109.734H516.88V109.421H516.253V109.107H515.626V108.794H514.999V108.48H514.685V108.167H514.059V107.853H513.432V107.54H512.491V107.226H511.864V106.913H511.237V106.599H510.924V106.286H510.611V105.972H510.297V105.659H509.984V105.345H509.67V105.032H509.357V104.718H509.043V104.405H508.73V103.777H508.416V103.464H508.103V102.837H507.789V102.523H507.476V101.896H507.163V101.269H506.849V100.956H506.536V99.3881H506.849V99.0745H507.476V98.761H508.416V98.4475H507.163V98.134H505.909V97.8204H504.655V97.5069H504.028V97.1934H503.088V96.8799H502.461V96.5663H501.834V96.2528H501.52V95.9393H501.207V95.3122H500.894V94.9987H500.58V94.3716H500.267V93.7446H499.953V93.431H499.64V92.804H499.326V92.1769H499.013V91.5499H498.699V90.9228H498.386V90.2958H498.073V89.6687H497.759V88.7281H497.446V87.7875H497.132V87.1605H497.446V86.5334H497.759V85.9064H498.073V85.5929H498.386V85.2793H498.699V84.6523H499.013V84.3387H499.326V84.0252H499.64V83.7117H499.953V83.3982H500.267V83.0846H500.58V82.7711H500.894V82.144H500.58V81.8305H499.326V81.517H495.251V81.2035H494.625V80.8899H494.311V80.2629H493.998V79.9494H493.684V78.6952H493.371V76.8141H493.684V75.56H493.998V74.9329H494.311V74.3059H494.625V73.9923H494.938V73.3653H495.251V73.0517H495.565V72.7382H496.192V72.4247H496.505V72.1112H497.132V71.7976H498.073V71.4841H500.58V71.7976H504.655V72.1112H504.968V72.4247H505.282V76.187H504.968V77.1276H504.655V77.7547H504.342V78.6952H504.655V79.0088H505.282V79.3223H506.222V79.6358H506.849V79.9494H507.476V80.2629H507.789V79.9494H508.416V79.3223H508.73V78.6952H509.043V77.7547H509.357V76.187H509.043V75.56H508.73V74.9329H508.416V74.6194H508.103V73.9923H507.789V73.6788H507.476V73.3653H507.163V72.7382H506.849V72.4247H506.536V72.1112H506.222V71.7976H505.909V71.4841H505.595V71.1706H505.282V70.857H504.968V70.5435H504.655V70.23H504.342V69.9165H504.028V69.6029H503.715V69.2894H503.088V68.9759H502.461V68.6623H501.207V68.3488H498.699V68.0353H498.386V68.3488H497.446V68.6623H497.132V68.9759H496.819V69.2894H496.505V69.6029H496.192V69.9165H495.878V70.5435H495.565V70.857H495.251V71.1706H494.938V71.4841H494.625V71.7976H494.311V72.1112H493.998V72.4247H493.684V72.7382H493.371V73.0517H492.744V73.3653H492.43V73.6788H490.863V73.3653H490.55V72.7382H490.236V71.1706H489.923V69.2894H489.609V67.0947H489.296V65.2135H488.982V63.6459H488.669V62.0783H488.356V60.8242H488.042V60.1971H487.729V59.2565H487.415V58.943H487.102V58.6295H486.788V58.3159H486.475V58.0024H486.161V57.6889H485.535V57.3753H485.221V57.0618H484.594V56.7483H483.967V56.4348H483.027V56.1212H482.087V55.8077H481.146V55.4942H480.206V55.1806H479.266V54.8671H478.012V54.5536H477.071V54.2401H476.131V53.9265H475.191V53.613H474.564V53.2995H473.31V52.986H472.056V52.6724H470.802V52.3589H469.235V52.0454H467.668V51.7318H465.787V51.4183H463.593V51.1048H461.399V50.7913H459.205V50.4777H458.264V50.7913H455.443V51.1048H452.622V51.4183H448.234V51.1048H446.98V50.7913H446.667V50.4777H446.353V50.1642H446.04V49.8507H445.726V49.2236H445.413V48.5966H445.099V47.656H444.786V46.4019H444.473V47.3425H444.159V48.283H443.846V48.9101H443.532V49.5371H443.219V50.4777H442.905V51.1048H442.592V51.4183H442.278V52.0454H441.651V52.3589H441.338V52.6724H440.711V52.986H440.084V53.2995H436.323V52.986H435.696V52.6724H435.382V52.3589H435.069V52.0454H434.756V51.7318H434.442V51.4183H434.129V51.1048H433.815V50.7913H433.502V50.4777H433.188V50.1642H432.875V49.8507H432.561V49.5371H432.248V49.2236H431.934V48.9101H431.621V48.5966H431.308V48.283H430.994V47.9695H430.681V47.656H430.054V47.3425H429.427V47.0289H429.113V46.7154H427.546V46.4019H422.531V46.0883H421.591V45.7748H420.964V45.4613H420.337V45.1478H420.023V44.8342H419.71V44.5207H419.396V43.8936H419.71V43.2666H420.337V42.9531H421.591V42.6395H424.725V42.326H429.74V42.0125H431.308V41.699H432.561V41.3854H433.502V41.0719H434.442V40.7584H435.382V40.4448H436.009V40.1313H436.636V39.8178H436.95V39.5043H437.577V38.8772H437.89V37.9366H438.204V37.3096H438.517V36.6825H438.83V36.369H439.144V36.0555H439.457V35.7419H439.771V35.4284H440.398V35.1149H441.025V34.8013H441.965V34.4878H447.607V34.1743H447.92V33.8608H448.547V33.5472H448.861V33.2337H449.174V32.6066H449.488V31.9796H449.801V31.3525H450.115V27.9037H450.428V27.5902H450.742V27.2767H451.055V26.9631H451.368V26.6496H451.682V26.3361H452.309V26.0226H452.622V25.709H453.249V25.3955H454.189V25.082H454.816V24.7684H456.07V24.4549H458.578V24.7684H458.891V25.082H460.145V25.3955H461.085V25.082H462.653V24.7684H463.28V24.4549H463.906V24.1414H464.22V23.8279H464.533V23.2008H464.847V22.8873H464.533V21.9467H464.22V20.3791H464.533V20.0655H464.847V19.752H465.16V19.4385H465.787V19.1249H466.101V18.8114H466.727V18.4979H467.668V18.1844H468.608V17.8708H469.549V17.5573H470.802V17.2438H472.056V16.9303H473.623V16.6167H475.191V16.3032H477.385V15.9897H480.519V15.6761H490.55V15.9897H492.43V16.3032H493.684V16.6167H494.625V16.9303H495.251V17.2438H496.192V17.5573H496.819V17.8708H498.386V18.1844H503.715V17.8708H504.968V17.5573H506.222V17.2438H506.849V16.9303H507.476V16.6167H507.789V16.3032H508.416V15.9897H508.73V15.3626H509.043V15.0491H509.357V14.422H509.67V13.1679H509.984V8.465H510.297V7.52441H510.611V6.89736H510.924V6.58383H511.237V6.2703H511.551V5.95678H512.178V5.64325H514.059V5.95678H514.685V6.2703H514.999V6.58383H515.312V7.21089H515.626V7.52441H515.939V8.15147H516.253V8.465H516.566V9.09206H516.88V9.40559H517.193V9.71911H517.506V10.0326H517.82V10.3462H518.133V10.6597H518.447V10.9732H519.387V10.6597H520.014V10.3462H520.328V10.0326H520.641V9.71911H520.954V9.40559H521.268V8.77853H521.581V8.465H521.895V8.15147H522.208V7.52441H522.522V7.21089H522.835V6.58383H523.149V6.2703H523.462V5.64325H523.775V5.32972H524.089V4.70267H524.402V4.38914H524.716V3.76208H525.029V3.44855H525.343V3.13503H525.656V2.8215H525.97V2.50797H526.91V2.19444H529.104V1.88091H532.552V1.56739H537.254V1.25386H544.777V0.940331H557.001V0.626801H584.585V0.313278H615.93V-0.00025177H621.259V0.313278H621.572V0.626801H622.199V0.940331H622.512V1.25386H623.139V1.88091H623.453V2.19444H623.766V2.50797H624.08V2.8215H624.393V3.13503H624.706V3.44855H625.02V4.07561H625.333V4.38914H625.647V5.0162H625.96V5.32972H626.274V5.95678H626.587V6.2703H626.901V6.89736H627.214V7.52441H627.528V8.15147H627.841V8.77853H628.154V9.71911H628.468V10.3462H628.781V11.2868H629.095V12.2273H629.408V13.4814H629.722V14.422H630.035V16.3032H630.349V21.6332H630.662V22.2602H631.289V22.5738H632.543V22.8873H634.737V23.2008H636.618V23.5143H637.558V23.2008H639.439V22.8873H640.379V22.5738H641.006V22.2602H641.633V21.9467H642.26V21.6332H642.573V21.3196H643.2V21.0061H643.514V20.6926H643.827V20.3791H644.454V20.0655H644.767V19.752H645.081V19.4385H645.708V19.1249H646.021V18.8114H646.335V18.4979H646.648V18.1844H646.961V17.8708H647.588V17.5573H647.902V17.2438H648.215V16.9303H648.842V16.6167H649.469V16.3032H649.783V15.9897H650.723V15.6761H651.663V15.3626H653.23V15.0491H657.932V15.3626H660.126V15.6761H661.38V15.9897H662.634V16.3032H663.888V16.6167H664.828V16.9303H665.142V17.2438H665.768V17.8708H666.082V19.1249H665.768V20.0655H665.455V20.6926H665.142V21.3196H664.828V21.6332H664.515V21.9467H664.201V22.2602H663.888V22.5738H663.261V22.8873H662.947V23.2008H662.634V23.5143H662.007V23.8279H661.38V24.1414H660.753V24.4549H660.126V24.7684H659.186V25.082H658.246V25.3955H657.305V25.709H656.678V26.0226H656.365V26.3361H655.738V26.6496H655.111V26.9631H654.484V27.2767H654.171V27.5902H653.544V27.9037H653.23V28.2173H652.604V28.5308H652.29V28.8443H651.663V29.1578H651.35V29.4714H651.036V29.7849H650.723V30.0984H650.096V30.4119H649.783V30.7255H649.469V31.039H648.842V31.3525H648.529V31.6661H648.215V31.9796H647.902V32.2931H647.275V32.6066H646.961V32.9202H646.648V33.2337H646.335V33.5472H646.021V33.8608H645.394V34.1743H645.081V34.4878H644.767V34.8013H644.454V35.1149H644.14V35.4284H643.514V35.7419H643.2V36.0555H642.887V36.369H642.573V36.6825H641.946V36.996H641.633V37.3096H641.319V37.6231H641.006V37.9366H640.692V38.2501H640.379V38.5637H640.066V38.8772H639.752V39.5043H639.439V39.8178H639.125V40.7584H638.812V41.699H638.498V42.0125H638.812V43.5801H639.125V44.2072H639.439V44.8342H639.752V45.1478H640.066V45.4613H640.379V45.7748H641.319V46.0883H644.14V46.4019H644.767V47.656H644.454V47.9695H644.14V48.283H643.827V48.5966H643.514V48.9101H643.2V49.2236H642.887V49.5371H642.573V49.8507H642.26V50.1642H641.946V50.4777H641.633V51.1048H641.319V51.7318H641.006V52.3589H640.692V53.9265H640.379V56.1212H640.066V61.7647H639.752V62.0783H639.439V62.3918H638.498V62.7053H633.17V62.3918H628.154V62.7053H626.587V63.0188H625.647V63.3324H625.333V63.6459H625.02V63.9594H624.706V64.273H624.393V66.1541H624.706V66.7812H625.02V67.4082H625.333V68.0353H625.647V68.6623H625.96V69.2894H626.274V69.9165H626.587V70.5435H626.901V71.1706H627.214V71.4841H627.528V72.1112H627.841V74.3059H627.528V74.9329H627.214V75.2464H626.901V75.8735H626.274V76.187H625.647V76.5005H625.02V76.8141H623.139V77.1276H621.885V76.8141H620.318V76.5005H619.691V76.187H619.378V75.8735H619.064V75.56H618.751V75.2464H618.437V74.6194H618.124V73.6788H617.811V71.7976H617.497V71.1706H617.184V70.857H616.87V70.5435H616.243V70.23H615.616V69.9165H614.676V69.6029H613.109V69.2894H612.795V69.6029H612.168V69.9165H611.855V70.5435H611.542V70.857H611.228V71.4841H610.915V72.1112H610.601V73.6788H610.915V73.9923H611.855V74.3059H613.736V74.6194H614.676V74.9329H614.99V75.2464H615.616V75.56H616.243V75.8735H616.557V76.187H616.87V76.5005H617.184V76.8141H617.497V77.1276H617.811V77.4411H618.437V77.7547H618.751V78.0682H619.064V78.3817H619.378V78.6952H619.691V79.3223H620.005V79.6358H619.691V79.9494H619.378V80.2629H612.795V80.5764H611.542V80.8899H610.601V81.2035H609.974V81.517H609.034V81.8305H608.094V82.144H607.153V82.4576H606.213V82.7711H605.273V83.0846H604.332V83.3982H603.392V83.7117H602.138V84.0252H600.884V84.3387H599.317V84.6523H597.123V84.9658H594.615V85.2793H591.481V85.5929H588.346V85.9064H584.585V86.2199H583.018V86.5334H582.704V86.847H582.077V87.1605H581.764V87.474H581.45V87.7875H580.823V88.1011H580.51V88.4146H580.197V88.7281H579.883V89.0417H579.57V89.6687H579.256V89.9822H578.943V90.2958H578.629V90.6093H578.316V90.9228H578.002V91.2364H577.689V91.8634H577.375V92.1769H577.062V92.4905H576.749V92.804H576.435V93.1175H575.181V93.431H571.42V93.1175H566.718V92.804H563.27V93.1175H562.33V93.431H561.703V93.7446H561.076V94.0581H560.449V94.3716H559.509V94.6852H558.882V94.9987H558.255V95.3122H557.628V95.6257H556.688V95.9393H555.747V96.2528H554.807V96.5663H552.926V96.8799H552.299V97.1934H551.673V97.5069H551.359V97.8204H551.046V99.3881H551.359V100.642H551.673V101.583H551.986V103.15H551.673V104.091H551.359V104.405H551.046V104.718H550.732V105.032H550.105V105.345H547.598V105.032H545.404V105.345H545.09V105.659H544.777V106.599H544.463V110.675H544.15V112.243H543.836V113.183H543.523V113.81H543.209V114.124H542.896V114.437H542.582V114.751H542.269V115.064H541.956V115.378H541.642V115.692H541.015V116.005H540.702V116.319H540.075V116.632H539.448V116.946H538.821V117.259H537.881V117.573" fill="white"/>
<path d="M372.853 270.299C372.505 273.773 375.99 272.728 380.162 272.728C384.331 272.728 391.635 272.039 393.023 273.773C394.418 275.519 400.678 278.294 402.411 279.694C404.151 281.078 409.714 281.422 410.056 280.032C410.41 278.647 406.238 274.817 403.796 275.168C401.37 275.519 396.151 272.728 393.377 270.299C390.591 267.863 385.372 267.863 383.291 267.863C381.203 267.863 372.853 270.299 372.853 270.299Z" fill="white"/>
<path d="M398.231 260.557C395.059 260.905 395.811 264.727 399.632 264.034C403.456 263.338 401.372 260.203 398.231 260.557Z" fill="white"/>
<path d="M399.982 289.37C396.791 289.942 397.544 296.149 401.371 295.019C405.192 293.889 403.11 288.795 399.982 289.37Z" fill="white"/>
<path d="M445.876 285.537C442.701 286.111 443.453 292.328 447.268 291.184C451.108 290.06 449.008 284.967 445.876 285.537Z" fill="white"/>
<path d="M414.238 286.997C414.238 286.997 418.065 287.687 420.497 287.687C422.93 287.687 424.325 289.083 426.409 290.127C428.49 291.172 432.321 288.736 433.709 288.736C435.098 288.736 436.838 292.908 437.189 288.384C437.537 283.859 433.017 281.775 430.236 281.078C427.45 280.381 424.325 281.078 422.237 281.422C420.143 281.775 414.238 286.997 414.238 286.997Z" fill="white"/>
<path d="M857.616 361.779C856.682 360.276 850.663 360.732 849.61 362.479C848.582 364.219 847.529 372.208 850.663 372.913C853.782 373.601 859.352 364.561 857.616 361.779ZM705.649 218.821C707.04 218.131 712.595 216.385 715.732 214.992C718.867 213.6 728.947 210.12 730.336 210.12C731.734 210.12 749.108 210.471 751.547 209.421C753.986 208.38 760.252 206.646 763.026 214.296C765.8 221.95 763.026 219.172 760.252 220.554C757.456 221.95 761.292 225.076 762.675 225.076C764.06 225.076 768.928 229.6 771.36 229.6C773.802 229.6 779.717 232.036 779.717 232.036C779.717 232.036 785.619 236.557 788.763 236.557C791.885 236.557 794.333 238.999 797.8 235.516C801.264 232.036 805.793 227.857 809.272 228.556C812.752 229.258 816.582 232.036 821.092 232.036C825.619 232.036 833.969 231.337 835.358 233.077C836.756 234.82 825.97 240.73 826.659 242.125C827.365 243.511 828.75 243.169 832.229 238.999C835.699 234.82 840.924 234.82 845.09 233.779C849.272 232.732 851.362 239.335 852.058 241.42C852.742 243.511 855.876 247.342 858.305 251.863C860.744 256.381 863.17 262.642 865.963 267.515C868.743 272.39 870.48 279.694 873.269 282.818C876.05 285.952 878.482 291.172 880.215 295.347C881.964 299.516 886.137 303.685 887.522 304.037C888.92 304.383 894.822 312.382 895.173 314.465C895.515 316.551 893.086 321.085 898.637 321.426C904.213 321.78 909.075 318.99 910.824 318.297C912.56 317.604 926.12 312.382 927.86 314.465C929.609 316.551 925.428 325.603 925.08 328.041C924.729 330.471 914.642 342.3 914.291 345.423C913.955 348.565 908.034 354.134 904.213 354.819C900.383 355.509 892.384 365.26 889.603 368.389C886.817 371.518 882.297 378.472 880.215 379.166C878.131 379.871 877.435 387.169 878.482 388.564C879.523 389.95 878.824 398.303 881.964 401.081C885.083 403.868 886.137 405.944 884.735 408.386C883.344 410.812 885.434 416.384 884.735 420.911C884.043 425.423 880.215 431.346 878.824 432.735C877.435 434.13 868.743 436.569 865.963 440.033C863.17 443.519 860.744 446.649 861.437 448.385C862.129 450.132 864.916 458.82 864.559 460.908C864.223 463.002 857.616 465.778 854.829 467.163C852.058 468.571 853.45 471.339 854.136 474.129C854.829 476.904 849.272 481.434 846.833 483.862C844.391 486.298 837.784 494.644 833.264 497.772C828.75 500.907 823.531 503.341 819.008 502.996C814.504 502.648 805.793 502.996 804.063 504.736C802.31 506.482 799.891 506.131 796.405 504.394C792.932 502.648 792.578 500.218 792.249 496.383C791.885 492.556 790.844 490.119 790.844 490.119C790.844 490.119 789.804 484.216 786.66 481.434C783.538 478.645 782.491 475.522 780.764 473.421C779.027 471.339 780.071 466.825 779.717 463.002C779.366 459.165 777.285 453.267 775.557 450.825C773.802 448.385 770.326 441.779 768.928 439.343C767.546 436.897 765.8 432.042 766.151 425.087C766.508 418.13 771.36 414.309 774.153 412.207C776.946 410.127 774.498 407.345 772.066 403.175C769.633 398.999 772.417 392.033 770.326 389.612C768.238 387.169 761.292 374.296 757.456 372.208C753.622 370.12 753.293 369.436 755.381 364.561C757.456 359.685 755.381 354.819 758.851 351.694C762.333 348.565 760.593 346.477 756.772 344.389C752.939 342.3 754.34 341.259 751.199 343.693C748.062 346.129 743.902 347.518 741.473 345.088C739.034 342.646 739.727 338.817 735.201 336.036C730.687 333.264 724.778 337.077 723.033 337.776C721.299 338.475 716.428 341.605 711.548 342.3C706.696 342.993 703.213 341.946 698.336 341.946C693.48 341.946 689.296 342.3 688.603 344.74C687.914 347.17 686.873 348.565 683.742 346.129C680.607 343.693 674.347 338.118 674.347 338.118C674.347 338.118 665.655 331.18 663.916 326.991C662.176 322.821 659.048 320.037 652.444 316.902C645.836 313.773 649.657 310.295 648.964 306.823C648.275 303.343 644.792 301.947 646.529 301.599C648.275 301.254 647.927 298.819 651.735 293.951C655.575 289.083 653.136 283.859 652.444 281.078C651.735 278.294 648.275 274.124 651.735 269.603C655.218 265.079 658.697 255.34 661.471 252.563C664.267 249.775 671.229 245.944 675.037 244.21C678.871 242.464 676.435 237.955 678.516 232.732C680.607 227.515 683.742 225.076 684.779 225.076C685.826 225.076 689.685 221.467 693.822 219.172C696.947 217.425 704.254 219.51 705.649 218.821Z" fill="white"/>
<path d="M920.898 413.254C916.551 412.013 916.04 417.782 912.563 421.606C909.078 425.423 905.257 428.552 903.872 428.216C902.467 427.865 894.825 430.646 897.258 435.857C899.687 441.073 899.348 446.303 896.907 448.736C894.474 451.172 898.991 458.13 898.311 461.949C897.599 465.777 899.348 468.215 904.216 468.215C909.078 468.215 910.827 466.469 912.911 461.949C914.993 457.43 915.338 452.912 917.425 449.084C919.513 445.255 921.259 437.255 922.299 435.17C923.34 433.082 925.431 426.469 925.083 422.647C924.732 418.823 923.34 413.953 920.898 413.254Z" fill="white"/>
<path d="M1047.13 323.862C1044.88 324.861 1042.95 336.729 1047.13 338.118C1051.31 339.523 1053.75 332.559 1052.36 330.826C1050.96 329.088 1050.27 322.47 1047.13 323.862Z" fill="white"/>
<path d="M754.341 194.121C751.059 194.121 749.46 199.347 751.548 201.081C753.623 202.815 755.726 202.476 757.456 200.037C759.212 197.601 756.071 194.121 754.341 194.121Z" fill="white"/>
<path d="M727.907 199.682C727.067 201.005 730.688 201.432 731.384 200.037C732.079 198.641 730.337 195.86 727.907 199.682Z" fill="white"/>
<path d="M769.28 205.606C768.017 206.358 771.361 208.731 773.107 209.421C774.866 210.12 776.238 212.212 777.636 212.556C779.028 212.908 783.539 212.556 782.153 209.079C780.765 205.606 777.637 205.606 776.593 205.606C775.558 205.606 771.032 204.562 769.28 205.606Z" fill="white"/>
<path d="M686.171 135.337C683.017 135.864 682.688 139.168 680.607 139.168C678.516 139.168 676.084 139.861 676.789 142.294C677.475 144.73 678.87 146.467 676.789 147.511C674.701 148.552 677.128 152.731 679.911 153.079C682.688 153.427 685.826 151.342 688.255 150.301C690.687 149.254 694.167 147.172 694.167 144.037C694.167 140.896 693.48 138.118 692.079 136.729C690.687 135.337 688.255 134.989 686.171 135.337Z" fill="white"/>
<path d="M690.002 124.906C687.188 125.844 688.257 129.421 689.648 131.161C691.04 132.898 693.482 136.729 696.949 138.118C700.431 139.514 707.737 140.896 704.96 142.295C702.167 143.69 697.296 147.512 696.61 149.597C695.902 151.685 702.522 153.773 702.522 153.773C702.522 153.773 700.431 156.209 702.168 156.902C703.91 157.601 704.96 154.469 707.737 154.469C710.508 154.469 716.078 156.209 718.868 156.209C721.648 156.209 726.162 152.384 725.82 149.945C725.469 147.512 721.987 143.69 718.868 142.295C715.734 140.896 712.254 134.638 710.176 133.249C708.082 131.86 712.254 128.374 709.822 125.953C707.386 123.514 705.65 123.865 702.863 122.119C700.089 120.379 697.651 122.47 695.902 124.558C694.168 126.64 692.081 124.204 690.002 124.906Z" fill="white"/>
<path d="M911.867 171.857C907.654 174.672 906.294 178.475 908.033 180.905C909.782 183.341 914.641 190.991 917.076 191.687C919.509 192.383 928.204 193.776 924.728 196.908C921.255 200.037 920.559 201.081 917.421 200.73C914.29 200.388 915.682 209.079 918.123 209.772C920.559 210.471 927.859 212.907 930.288 213.252C932.727 213.6 940.726 212.556 940.372 210.471C940.027 208.38 938.635 200.037 935.861 197.952C933.062 195.86 939.689 193.776 937.94 192.035C936.194 190.295 933.774 190.991 932.376 188.906C930.981 186.818 930.288 184.737 928.204 183.341C926.119 181.946 924.386 184.737 924.728 180.905C925.079 177.08 929.94 174.641 932.028 176.732C934.112 178.817 940.372 177.776 941.773 176.732C943.165 175.688 938.98 172.553 937.94 170.465C936.899 168.377 929.94 166.646 928.9 167.336C927.859 168.035 925.079 170.123 922.295 171.857C919.509 173.597 913.954 170.465 911.867 171.857ZM832.228 196.212C832.924 197.601 836.4 194.12 839.178 194.12C841.952 194.12 848.224 195.168 849.963 192.731C851.697 190.295 857.257 189.947 861.787 190.64C866.313 191.336 870.134 194.472 873.269 194.82C876.4 195.168 884.735 194.472 887.521 193.776C890.295 193.076 889.602 188.204 885.082 185.777C880.569 183.341 876.738 179.516 872.566 178.124C868.388 176.732 866.996 175.337 869.435 174.641C871.877 173.951 874.996 171.167 871.523 171.167C868.043 171.167 864.915 172.211 864.558 173.951C864.222 175.688 862.128 177.776 860.743 178.475C859.351 179.171 855.875 181.946 854.828 179.858C853.781 177.776 849.964 171.512 848.224 171.167C846.487 170.816 843.707 171.167 841.613 174.641C839.529 178.124 837.096 181.604 835.002 182.99C832.924 184.382 830.141 188.555 832.228 189.254C834.31 189.947 832.228 196.212 832.228 196.212ZM844.055 112.029C842.87 115.312 852.057 117.946 853.781 115.506C855.53 113.07 845.785 107.17 844.055 112.029ZM712.948 173.249C712.594 170.123 705.648 167.336 701.125 166.646C696.608 165.953 697.294 163.868 702.165 163.517C707.039 163.163 706.695 161.429 710.854 160.733C715.036 160.037 719.214 158.993 722.339 158.648C725.467 158.294 725.467 155.513 725.467 153.428C725.467 151.343 734.159 150.637 734.159 150.637C734.159 150.637 739.033 146.132 741.82 144.037C744.591 141.949 749.459 142.294 753.292 143.338C757.113 144.379 752.938 140.896 751.546 139.168C750.155 137.428 751.198 133.597 752.258 131.509C753.292 129.421 759.558 128.374 761.291 129.079C763.025 129.769 761.291 132.898 761.633 135.685C761.984 138.472 764.765 140.209 764.765 140.209L767.545 139.861C767.545 139.861 767.545 139.861 772.065 139.861C776.591 139.861 775.193 142.649 778.675 141.601C782.152 140.557 786.324 139.168 787.722 138.472C789.101 137.773 792.931 137.773 798.144 139.513C803.363 141.25 800.586 136.378 801.626 133.597C802.67 130.813 804.745 125.953 808.224 126.289C811.704 126.64 814.503 128.728 817.277 126.994C820.051 125.251 812.064 122.818 812.064 121.774C812.064 120.73 818.662 120.73 824.577 120.379C830.492 120.034 833.968 120.379 836.755 119.689C839.529 118.993 834.67 114.117 833.617 114.117C832.583 114.117 825.618 114.814 822.132 114.469C818.662 114.117 814.838 116.55 811.704 117.253C808.576 117.946 807.886 113.07 806.143 110.988C804.397 108.9 803.704 105.082 808.224 102.987C812.751 100.909 820.756 96.3781 822.132 94.2869C823.53 92.2019 816.581 92.5562 809.977 92.8948C803.363 93.246 811.023 94.986 804.745 101.253C798.504 107.511 795.367 103.335 790.499 107.511C785.618 111.678 789.101 112.029 793.636 113.425C798.144 114.814 794.332 118.993 793.285 120.034C792.248 121.072 787.02 124.906 787.722 127.687C788.417 130.459 784.239 132.208 784.239 132.208C784.239 132.208 771.36 134.989 768.927 135.337C766.507 135.685 765.799 133.597 766.507 131.509C767.197 129.421 763.711 124.558 763.379 121.426C763.025 118.294 757.818 122.818 757.455 124.906C757.113 126.994 750.499 127.333 746.685 125.953C742.854 124.558 740.76 119.338 741.472 118.294C742.165 117.253 739.384 112.029 739.384 110.634C739.384 109.255 747.026 103.686 753.621 102.294C760.251 100.909 768.585 92.8948 773.105 89.4272C777.635 85.947 779.716 81.7708 781.117 80.7299C782.49 79.6827 806.494 73.4216 815.196 72.0295C823.872 70.6437 843.017 73.7759 846.136 74.4656C849.271 75.1554 851.004 76.1963 858.662 78.9867C866.313 81.7709 872.914 81.7708 877.776 82.47C882.647 83.1629 885.775 84.5518 888.919 85.947C892.041 87.3454 888.919 88.3863 881.249 90.813C873.604 93.246 868.388 92.5562 864.222 91.161C860.041 89.7689 857.615 89.7689 860.743 91.8539C863.862 93.9388 862.827 94.986 863.169 98.115C863.517 101.253 868.388 98.4662 869.435 97.7702C870.479 97.0773 870.479 95.6852 874.312 98.115C878.13 100.554 879.522 99.1591 881.249 98.8111C882.995 98.4662 881.606 94.6443 882.647 93.246C883.688 91.8539 887.872 91.8539 888.919 91.161C889.96 90.4712 892.383 89.4272 894.47 89.076C896.548 88.7249 896.207 92.2019 898.307 93.246C900.382 94.2869 899.344 88.7249 898.636 87.3454C897.946 85.947 897.254 82.122 898.307 81.0748C899.344 80.0307 906.654 79.3347 908.381 80.7299C910.121 82.122 905.61 86.295 906.654 88.7249C907.698 91.161 910.121 87.3454 911.867 85.251C913.6 83.1629 917.421 85.251 923.681 84.2069C929.94 83.1629 928.555 79.6828 935.147 81.7709C941.773 83.8621 940.027 83.8621 942.121 81.7709C944.212 79.6828 948.026 82.122 951.844 80.7299C955.672 79.3347 955.672 80.7299 958.468 82.122C961.242 83.5109 964.721 79.3347 966.113 77.9458C967.501 76.5506 973.059 76.5506 975.848 76.9049C978.638 77.2498 982.102 78.9867 984.885 78.9867C987.665 78.9867 992.188 81.0748 992.188 81.0748C992.188 81.0748 998.103 83.1629 999.504 81.7709C1000.88 80.3757 999.15 78.6387 993.925 76.1963C988.712 73.7759 990.797 69.6028 993.925 69.2517C997.063 68.9005 996.712 67.1667 999.15 65.7747C1001.58 64.3857 1004.71 59.1624 1007.48 60.2032C1010.27 61.2505 1012.71 63.3354 1016.2 65.0724C1019.66 66.8156 1016.53 69.2517 1015.84 70.9855C1015.15 72.7318 1016.53 79.3347 1017.57 80.3756C1018.62 81.4259 1016.53 85.251 1013.76 86.9911C1010.98 88.7249 1007.13 92.5562 1008.2 93.246C1009.22 93.9389 1017.57 90.1201 1017.57 90.1201C1017.57 90.1201 1022.8 83.8621 1025.23 82.122C1027.66 80.3757 1030.09 80.3757 1030.78 82.47C1031.49 84.5518 1035.31 85.251 1038.79 83.8621C1042.27 82.47 1038.79 81.4259 1038.45 78.2938C1038.09 75.1554 1032.54 76.9049 1029.4 77.5915C1026.27 78.2938 1023.83 81.4259 1022.8 81.4259C1021.74 81.4259 1021.74 79.3347 1022.44 76.1963C1023.14 73.0736 1021.06 71.3366 1021.06 69.6028C1021.06 67.8565 1022.1 67.8565 1024.53 64.3857C1026.97 60.8993 1026.97 66.8156 1027.31 69.9414C1027.66 73.0735 1030.09 71.6909 1032.18 71.3366C1034.26 70.9855 1033.23 66.8156 1034.97 64.7274C1036.7 62.6331 1040.54 62.2914 1044 65.4266C1047.48 68.5588 1047.12 67.5116 1051.31 68.9005C1055.48 70.2926 1055.83 70.6437 1056.19 73.7759C1056.52 76.9049 1059.31 77.2498 1061.05 76.1963C1062.78 75.1554 1061.4 70.9855 1060.35 69.6028C1059.31 68.2076 1050.96 65.7747 1048.16 63.3354C1045.4 60.8993 1049.56 60.8993 1052.7 60.8993C1055.83 60.8993 1061.74 61.2504 1061.74 61.2504C1061.74 61.2504 1068.34 59.8521 1071.82 57.416C1075.3 54.9924 1077.74 54.9924 1081.21 53.5972C1084.68 52.202 1090.26 52.202 1093.74 52.9043C1097.21 53.5972 1099.64 51.5123 1103.13 50.1171C1106.6 48.7344 1110.43 47.6841 1111.48 48.3832C1112.52 49.0761 1121.19 51.1611 1122.59 50.8225C1123.98 50.4682 1127.11 49.4304 1132.68 47.3329C1138.24 45.248 1135.81 45.6023 1137.88 44.5519C1139.98 43.511 1143.46 43.163 1150.76 46.292C1158.06 49.4305 1150.76 46.292 1152.85 48.3832C1154.93 50.4682 1155.98 48.0321 1160.85 47.3329C1165.72 46.6463 1168.85 47.3329 1171.97 47.6841C1175.11 48.0321 1182.06 48.0321 1185.19 50.1171C1188.33 52.202 1183.11 56.7262 1181.36 58.1183C1179.62 59.5072 1184.14 60.5544 1185.55 60.2032C1186.92 59.8521 1198.41 60.2032 1203.61 60.8993C1208.85 61.5953 1210.93 64.0314 1213.35 64.0314C1215.79 64.0314 1219.62 62.9937 1221.01 61.5953C1222.41 60.2032 1231.09 59.5072 1233.87 59.1623C1236.65 58.8143 1244.31 59.1624 1245.36 59.8521C1246.4 60.5544 1247.44 64.0314 1247.44 66.8156C1247.44 69.6028 1250.57 72.0295 1253 72.3807C1255.44 72.7318 1259.96 68.2076 1261.69 67.5116C1263.43 66.8156 1265.51 70.6437 1266.56 69.6028C1267.6 68.5588 1276.3 69.9414 1279.79 68.2076C1283.25 66.4707 1285.33 68.2076 1287.09 67.5116C1288.81 66.8156 1291.6 62.9937 1291.6 61.5953C1291.6 60.2032 1292.99 59.1624 1291.6 57.0774C1290.2 54.9924 1285.33 56.3751 1280.12 54.9924C1274.91 53.5972 1279.79 51.5123 1281.86 50.1171C1283.95 48.7344 1287.42 50.1171 1290.9 50.8225C1294.37 51.5123 1292.99 49.7722 1294.73 49.7722C1296.48 49.7722 1302.72 51.5123 1306.2 51.5123C1309.67 51.5123 1312.46 55.331 1312.46 55.331C1312.46 55.331 1302.72 58.1183 1300.64 58.1183C1298.56 58.1183 1299.94 60.8993 1301.69 60.8993C1303.43 60.8993 1305.86 61.9465 1308.29 63.6866C1310.73 65.4266 1321.5 63.6866 1322.89 63.6866C1324.29 63.6866 1328.47 65.4266 1332.64 67.8565C1336.8 70.2926 1339.59 71.3366 1339.59 71.3366C1339.59 71.3366 1345.49 71.3366 1351.41 70.6437C1357.32 69.9414 1364.98 69.9414 1366.37 70.9855C1367.76 72.0295 1371.59 73.0735 1374.36 75.5065C1377.13 77.9458 1379.23 76.9049 1383.06 76.5506C1386.89 76.1963 1390.71 75.5065 1394.19 75.5065C1397.67 75.5065 1409.13 75.1554 1411.22 78.2938C1413.3 81.4259 1415.75 80.7299 1415.75 80.7299C1415.75 80.7299 1418.88 75.1554 1420.27 74.1145C1421.67 73.0736 1426.18 74.8168 1428.96 76.1963C1431.74 77.5915 1445.29 76.1963 1448.79 76.9049C1452.26 77.5915 1457.13 81.0748 1454.35 83.8621C1451.57 86.6368 1456.44 91.5153 1455.4 94.2869C1454.35 97.0773 1451.57 97.419 1448.79 98.115C1446 98.8111 1451.57 102.294 1454.01 104.734C1456.44 107.17 1452.61 107.859 1450.17 106.819C1447.74 105.775 1441.48 107.17 1433.47 109.255C1425.47 111.34 1422.34 115.506 1414.01 115.854C1405.66 116.206 1409.13 115.506 1398.71 115.506C1388.28 115.506 1388.62 118.294 1386.53 121.774C1384.45 125.251 1387.58 124.558 1386.53 127.333C1385.49 130.123 1383.75 133.249 1383.75 135.685C1383.75 138.118 1377.49 138.472 1375.4 140.557C1373.31 142.649 1369.84 147.863 1363.93 151.684C1358.02 155.513 1353.85 161.429 1353.85 161.429C1353.85 161.429 1354.89 155.513 1357.67 151.343C1360.45 147.173 1354.54 141.25 1354.19 136.729C1353.85 132.208 1355.94 130.813 1359.4 126.64C1362.88 122.47 1371.23 121.072 1374.71 118.993C1378.19 116.898 1392.46 107.17 1392.46 107.17C1392.46 107.17 1389.67 108.9 1386.2 110.296C1382.7 111.678 1378.54 114.469 1375.76 114.469C1372.96 114.469 1374.03 111.678 1373.67 108.9C1373.31 106.129 1366.71 108.211 1364.27 110.988C1361.84 113.769 1357.32 115.506 1352.46 118.993C1347.59 122.47 1348.98 122.119 1345.85 122.47C1342.71 122.818 1337.5 120.73 1335.08 118.993C1332.64 117.253 1330.2 120.379 1322.55 120.73C1314.9 121.072 1306.2 120.034 1302.72 120.379C1299.25 120.73 1290.56 130.813 1285.33 132.556C1280.12 134.29 1273.51 137.428 1275.26 139.861C1277 142.294 1280.12 137.773 1281.52 137.773C1282.91 137.773 1280.48 142.649 1283.6 142.649C1286.73 142.649 1288.45 140.896 1291.6 140.557C1294.73 140.209 1297.17 142.987 1297.86 146.818C1298.56 150.637 1296.48 153.773 1295.08 158.648C1293.69 163.517 1291.6 168.377 1286.04 172.553C1280.48 176.732 1271.43 184.382 1269.69 186.467C1267.95 188.555 1261.69 186.818 1260.65 185.426C1259.62 184.031 1256.48 188.555 1254.05 189.599C1251.61 190.64 1249.18 192.731 1249.18 195.516C1249.18 198.3 1242.23 198.3 1242.23 200.037C1242.23 201.77 1246.4 206.646 1248.13 209.079C1249.87 211.515 1247.77 219.171 1244.65 220.902C1241.52 222.639 1240.15 224.727 1235.96 222.303C1231.79 219.861 1235.27 218.466 1237.01 214.644C1238.75 210.816 1235.27 208.731 1234.57 207.687C1233.87 206.646 1231.09 209.772 1229.71 210.12C1228.31 210.471 1228.31 206.984 1229.35 204.9C1230.4 202.815 1228.66 198.3 1227.62 197.952C1226.58 197.601 1219.97 203.166 1217.19 202.815C1214.39 202.476 1216.83 196.212 1217.88 194.472C1218.93 192.731 1215.79 194.12 1213.7 195.86C1211.62 197.601 1207.1 201.432 1205.35 201.081C1203.61 200.73 1200.14 203.859 1202.93 205.947C1205.71 208.032 1206.75 209.772 1208.49 210.12C1210.22 210.471 1214.75 209.421 1216.49 209.079C1218.22 208.731 1221.7 211.515 1218.22 214.644C1214.75 217.779 1207.44 218.13 1208.85 220.215C1210.22 222.303 1213.7 225.426 1216.49 230.295C1219.27 235.164 1218.22 240.378 1218.93 244.21C1219.62 248.038 1208.85 256.033 1205.71 258.469C1202.57 260.905 1199.45 266.818 1194.23 269.602C1189.01 272.39 1177.88 274.816 1176.15 273.772C1174.4 272.728 1169.54 275.519 1169.89 279.338C1170.23 283.163 1172.67 282.818 1172.67 283.859C1172.67 284.905 1169.18 289.082 1167.81 290.824C1166.41 292.558 1161.54 290.824 1162.25 285.602C1162.94 280.38 1166.41 278.294 1166.06 275.86C1165.72 273.434 1162.59 272.038 1160.5 274.123C1158.41 276.211 1151.81 282.121 1151.81 282.121C1151.81 282.121 1154.25 288.383 1157.37 290.824C1160.5 293.259 1162.59 296.724 1166.76 301.946C1170.93 307.164 1167.81 311.688 1166.76 315.521C1165.72 319.344 1162.25 319.344 1159.46 320.037C1156.67 320.729 1155.98 321.78 1154.93 323.862C1153.89 325.956 1149.03 328.382 1148.32 326.649C1147.64 324.905 1143.11 320.729 1143.11 320.729C1143.11 320.729 1139.98 314.464 1135.46 311.339C1130.95 308.207 1129.21 306.822 1129.21 309.956C1129.21 313.084 1126.43 318.99 1126.43 321.084C1126.43 323.165 1120.15 314.816 1120.15 311.339C1120.15 307.867 1119.11 301.946 1119.46 296.388C1119.82 290.824 1112.16 296.034 1112.16 296.034C1112.16 296.034 1108.68 301.946 1106.96 301.946C1105.21 301.946 1104.52 297.078 1104.85 292.907C1105.21 288.736 1103.13 284.905 1102.07 283.514C1101.03 282.121 1095.12 276.563 1094.08 272.728C1093.04 268.906 1090.95 270.298 1088.87 272.389C1086.78 274.478 1087.47 274.478 1079.14 274.478C1070.78 274.478 1071.13 279.693 1066.94 282.818C1062.78 285.952 1059.31 291.862 1054.44 293.951C1049.56 296.034 1047.48 298.119 1047.48 300.558C1047.48 302.989 1047.48 309.247 1046.44 312.731C1045.4 316.214 1044.7 321.084 1042.27 324.561C1039.83 328.04 1037.75 333.6 1035.66 333.6C1033.58 333.6 1032.87 328.743 1032.87 325.602C1032.87 322.469 1026.97 315.17 1025.57 312.731C1024.18 310.294 1018.97 299.516 1018.97 299.516C1018.97 299.516 1014.79 288.039 1015.15 284.905C1015.48 281.774 1015.48 273.082 1015.48 273.082C1015.48 273.082 1009.93 278.646 1007.48 278.294C1005.05 277.943 1002.63 274.123 1002.96 269.602C1003.31 265.078 998.799 265.423 996.361 264.727C993.925 264.034 990.797 257.779 989.067 257.779C987.308 257.779 986.274 257.779 984.885 259.864C983.5 261.949 976.193 261.598 974.444 261.598C972.701 261.598 962.282 261.247 959.157 260.203C956.026 259.162 952.546 252.901 950.801 252.214C949.08 251.518 943.861 256.033 941.773 255.34C939.689 254.65 935.501 251.164 930.981 249.082C926.474 246.994 925.079 242.125 923.336 238.999C921.599 235.87 915.682 240.729 916.368 244.21C917.076 247.687 924.728 252.214 924.728 254.65C924.728 257.08 926.119 257.779 929.94 260.905C933.774 264.034 930.639 265.777 933.062 266.467C935.501 267.16 938.98 263.686 942.466 261.949C945.942 260.203 945.585 257.779 947.334 257.779C949.08 257.779 948.71 262.297 951.5 262.642C954.28 262.993 961.586 267.16 963.329 269.953C965.072 272.728 961.586 274.478 960.201 276.901C958.8 279.338 954.64 286.296 951.148 289.082C947.666 291.862 943.861 295.686 938.635 296.724C933.423 297.769 932.727 300.558 928.555 300.903C924.386 301.254 912.907 306.822 911.168 307.867C909.431 308.91 900.034 311.688 897.254 310.647C894.47 309.601 893.43 302.646 892.383 297.427C891.342 292.216 889.96 289.428 888.919 287.342C887.872 285.255 881.606 279.693 880.215 278.646C878.823 277.607 875.353 269.254 874.996 265.777C874.651 262.297 870.83 263.686 870.134 259.864C869.435 256.033 865.605 250.816 864.915 248.376C864.222 245.943 857.257 248.734 854.49 249.082C851.697 249.43 846.487 246.994 847.183 241.419C847.873 235.87 850.662 235.87 854.135 235.87C857.615 235.87 856.223 234.123 859.696 230.64C863.169 227.163 864.222 220.215 864.558 215.691C864.915 211.167 862.129 213.252 859.351 213.948C856.568 214.644 852.39 215.691 851.004 215.34C849.609 214.992 844.055 213.252 843.017 214.296C841.952 215.34 836.049 214.644 834.67 212.907C833.263 211.167 826.317 209.079 825.618 207.687C824.916 206.298 825.618 197.952 824.226 195.86C822.837 193.776 819.709 196.212 817.96 197.601C816.23 198.996 811.368 200.037 812.751 201.081C814.145 202.125 818.662 204.207 818.324 206.984C817.96 209.772 814.838 210.471 813.105 211.86C811.368 213.252 807.886 215.34 806.839 213.6C805.792 211.86 802.31 204.207 801.263 202.815C800.228 201.432 797.097 197.952 796.063 194.82C795.022 191.687 791.191 190.64 788.762 188.204C786.324 185.777 779.365 181.946 776.591 179.171C773.801 176.387 768.927 174.299 768.585 177.776C768.238 181.256 773.456 181.946 775.557 185.426C777.635 188.906 782.152 190.991 784.584 192.035C787.02 193.076 793.636 197.601 793.636 197.601C793.636 197.601 790.844 198.641 788.417 198.3C785.973 197.952 788.066 202.476 787.722 204.9C787.371 207.336 784.926 207.336 784.239 204.561C783.537 201.77 781.446 198.641 780.07 197.601C778.675 196.56 769.632 193.776 768.238 193.076C766.846 192.383 760.937 188.555 760.251 185.426C759.558 182.3 754.339 181.946 752.938 182.648C751.546 183.341 746.33 187.16 743.901 187.16C741.472 187.16 737.642 185.426 734.846 185.072C732.078 184.737 731.733 189.599 730.686 192.383C729.639 195.168 725.119 193.076 722.693 195.516C720.261 197.952 716.076 200.388 717.12 202.476C718.173 204.561 719.903 204.561 716.778 206.298C713.638 208.032 711.901 211.515 708.776 211.86C705.648 212.211 701.479 213.6 699.733 212.556C697.987 211.515 696.608 216.039 695.561 217.083C694.527 218.13 692.774 213.948 691.038 212.211C689.295 210.471 684.778 211.86 683.393 211.515C682.001 211.167 680.606 208.032 678.87 206.646C677.127 205.251 677.475 202.125 678.87 201.081C680.255 200.037 681.641 198.3 680.606 195.168C679.559 192.035 678.87 185.072 682.349 183.699C685.825 182.3 694.166 183.699 698.335 183.699C702.519 183.699 709.666 185.138 710.854 182.99C712.594 179.858 713.293 176.387 712.948 173.249Z" fill="white"/>
<path d="M951.845 73.4218C949.285 75.9958 943.862 75.1556 940.028 73.0737C936.195 70.9856 931.681 70.6439 929.609 69.9416C927.515 69.2518 929.942 65.0725 932.377 64.0316C934.816 62.9938 941.42 59.8523 946.301 57.7673C951.15 55.6855 952.548 51.5124 956.027 51.5124C959.506 51.5124 976.194 48.0323 978.279 48.7346C980.373 49.4306 990.441 50.1172 992.547 47.3331C994.625 44.5521 1001.93 46.2922 1000.19 48.7346C998.452 51.1613 992.19 56.7264 988.021 55.6855C983.846 54.6383 972.022 54.9926 966.806 55.6855C961.588 56.3752 956.72 59.5074 952.197 61.9466C947.667 64.3859 948.711 67.1669 950.466 67.5117C952.197 67.8566 953.93 71.3368 951.845 73.4218Z" fill="white"/>
<path d="M1303.77 142.648C1301.76 143.216 1295.77 141.949 1297.86 146.818C1299.94 151.684 1300.3 155.168 1299.94 158.993C1299.61 162.827 1299.94 170.816 1300.64 171.857C1301.34 172.904 1304.11 175.337 1305.86 174.641C1307.59 173.951 1305.16 166.994 1305.16 165.602C1305.16 164.21 1307.59 162.119 1308.99 161.774C1310.38 161.429 1308.99 155.512 1307.23 153.08C1305.5 150.637 1303.07 149.254 1304.47 148.903C1305.86 148.552 1307.59 145.777 1306.55 145.072C1305.5 144.379 1306.2 141.949 1303.77 142.648Z" fill="white"/>
<path d="M1300.3 178.124C1297.72 178.758 1296.82 182.301 1296.82 183.342C1296.82 184.382 1287.09 186.467 1290.21 189.255C1293.33 192.036 1296.48 189.948 1301.34 189.599C1306.2 189.255 1310.73 187.866 1310.73 187.866C1310.73 187.866 1318.03 188.204 1316.99 184.737C1315.94 181.257 1308.29 180.905 1306.9 181.257C1305.51 181.605 1303.07 177.432 1300.3 178.124Z" fill="white"/>
<path d="M1292.3 191.688C1289.73 193.227 1291.25 199.347 1289.17 203.52C1287.09 207.687 1285.33 211.515 1283.95 211.515C1282.56 211.515 1275.26 214.296 1273.17 216.384C1271.07 218.466 1261.01 214.644 1259.62 216.384C1258.22 218.131 1255.44 220.216 1253.7 221.598C1251.96 222.99 1247.09 221.949 1248.14 226.122C1249.18 230.296 1251.61 234.124 1253.7 234.124C1255.79 234.124 1258.57 232.732 1258.57 228.903C1258.57 225.075 1263.43 228.903 1265.87 228.555C1268.31 228.214 1269.69 225.774 1270.73 222.99C1271.79 220.216 1269.35 224.389 1273.52 225.426C1277.7 226.467 1279.08 223.683 1279.08 222.639C1279.08 221.598 1286.73 219.861 1288.13 218.82C1289.51 217.78 1295.08 216.039 1295.44 214.644C1295.77 213.252 1295.44 205.251 1297.17 204.561C1298.9 203.859 1301.34 203.859 1298.56 198.996C1295.77 194.121 1295.77 189.6 1292.3 191.688Z" fill="white"/>
<path d="M1215.8 260.203C1210.64 261.008 1207.45 272.038 1211.62 271.684C1215.8 271.342 1220.31 259.513 1215.8 260.203Z" fill="white"/>
<path d="M1430.36 506.482C1428.96 507.165 1430.36 511 1431.74 512.376C1433.14 513.781 1433.84 518.641 1433.47 520.039C1433.14 521.434 1427.22 523.174 1430 524.917C1432.79 526.652 1438 524.917 1437.31 526.995C1436.62 529.078 1433.84 531.875 1436.96 532.561C1440.1 533.254 1441.13 530.119 1442.52 527.699C1443.93 525.255 1444.97 523.174 1447.38 521.782C1449.82 520.393 1447.38 517.258 1446 517.258C1444.61 517.258 1443.93 519.004 1440.78 517.258C1437.66 515.517 1438.35 516.211 1436.27 512.74C1434.18 509.253 1433.84 504.735 1430.36 506.482Z" fill="white"/>
<path d="M1427.57 528.741C1427.01 530.424 1424.1 530.828 1422.02 532.562C1419.93 534.302 1422.02 534.998 1416.1 538.478C1410.18 541.962 1402.88 545.778 1401.5 548.906C1400.11 552.041 1402.88 553.785 1408.45 554.129C1414.01 554.478 1412.62 555.518 1416.45 551.335C1420.27 547.179 1423.75 544.743 1428.27 541.262C1432.8 537.779 1432.8 532.562 1432.8 532.562C1432.8 532.562 1427.92 527.7 1427.57 528.741Z" fill="white"/>
<path d="M1311.42 531.52C1307.59 535.342 1315.26 535.342 1314.22 539.173C1313.17 543.001 1319.43 541.606 1321.17 540.919C1322.89 540.214 1327.07 532.213 1326.37 530.118C1325.68 528.037 1318.72 533.602 1316.99 533.254C1315.26 532.908 1311.42 531.52 1311.42 531.52Z" fill="white"/>
<path d="M1286.04 504.394C1286.04 500.842 1283.95 508.212 1282.56 505.083C1281.16 501.954 1283.95 496.731 1280.48 498.819C1277 500.907 1275.26 502.647 1274.91 504.394C1274.56 506.131 1268.3 506.818 1268.65 505.083C1269 503.341 1271.43 499.17 1269 497.436C1266.56 495.691 1262.39 494.994 1259.26 493.951C1256.13 492.906 1259.62 489.433 1251.26 491.16C1242.91 492.906 1239.79 494.994 1239.79 494.994C1239.79 494.994 1232.13 492.556 1229.71 495.336C1227.27 498.129 1223.79 503.341 1223.79 503.341C1223.79 503.341 1214.06 503.701 1211.96 504.042C1209.87 504.394 1206.39 507.165 1203.28 508.212C1200.14 509.254 1194.92 510.295 1192.84 508.564C1190.75 506.818 1187.28 503.701 1188.33 501.612C1189.36 499.524 1197.01 496.731 1194.23 493.248C1191.45 489.78 1189.72 489.079 1189.36 486.997C1189.01 484.909 1190.41 483.861 1186.24 479.691C1182.06 475.521 1183.11 470.646 1184.84 469.96C1186.58 469.257 1183.79 465.084 1182.41 463.348C1181.02 461.601 1181.02 455.343 1183.79 453.596C1186.58 451.872 1194.92 445.256 1197.36 445.256C1199.8 445.256 1203.61 446.303 1206.05 444.56C1208.49 442.826 1215.79 443.519 1215.79 442.12C1215.79 440.738 1216.49 435.17 1218.22 433.434C1219.97 431.687 1227.27 429.947 1228.31 428.552C1229.35 427.169 1231.09 421.253 1233.17 420.212C1235.27 419.17 1237.01 416.741 1240.15 420.212C1243.27 423.695 1246.4 425.087 1247.77 421.607C1249.18 418.13 1248.13 419.17 1251.26 416.041C1254.39 412.912 1250.91 407.689 1254.05 410.812C1257.17 413.953 1259.26 416.383 1259.26 416.383C1259.26 416.383 1258.92 409.433 1261 409.433C1263.09 409.433 1265.17 412.912 1266.21 412.912C1267.26 412.912 1276.65 410.812 1278.39 413.254C1280.12 415.687 1273.51 422.3 1275.95 424.736C1278.39 427.169 1283.25 428.552 1286.73 430.646C1290.2 432.734 1294.37 437.602 1296.12 433.434C1297.86 429.257 1301.34 423.005 1298.9 419.87C1296.48 416.741 1299.61 406.649 1300.64 405.944C1301.69 405.263 1303.43 413.953 1306.9 417.782C1310.38 421.607 1313.86 424.388 1315.59 428.552C1317.34 432.734 1317.67 440.032 1320.8 442.472C1323.93 444.908 1330.2 444.908 1329.84 448.037C1329.51 451.173 1336.8 457.083 1340.63 463.002C1344.45 468.919 1344.8 481.785 1344.8 487.345C1344.8 492.906 1340.63 500.217 1337.5 504.394C1334.37 508.564 1333.33 514.123 1331.94 516.211C1330.55 518.299 1331.24 517.952 1326.03 519.346C1320.8 520.741 1316.99 524.918 1315.59 523.523C1314.22 522.134 1309.33 519.694 1307.94 521.435C1306.55 523.175 1304.81 526.996 1302.38 522.82C1299.94 518.641 1294.37 519.346 1293.33 518.641C1292.3 517.952 1292.3 515.863 1292.3 512.376C1292.3 508.912 1287.78 508.564 1287.42 507.517C1287.09 506.482 1286.04 505.435 1286.04 504.394Z" fill="white"/>
<path d="M1447.83 436.743V436.43H1446.26V435.803H1446.58V435.489H1446.89V434.862H1447.2V434.548H1447.52V434.235H1447.83V433.921H1448.14V433.608H1448.46V433.294H1448.77V432.981H1449.08V432.354H1449.4V432.04H1449.71V431.727H1450.34V431.413H1450.65V431.1H1450.96V430.786H1451.28V430.473H1451.59V430.159H1451.9V429.846H1452.53V429.532H1452.84V429.218H1453.78V428.905H1454.41V428.591H1455.98V428.905H1456.29V431.413H1455.98V431.727H1455.67V432.354H1455.35V432.667H1455.04V432.981H1454.72V433.294H1454.41V433.608H1454.1V433.921H1453.78V434.235H1453.16V434.548H1452.84V434.862H1452.53V435.175H1451.9V435.489H1451.28V435.803H1450.65V436.116H1449.71V436.43H1448.46V436.743" fill="white"/>
<path d="M1402.19 453.596C1401.51 456.983 1397.32 455.343 1395.24 452.214C1393.14 449.084 1388.97 446.648 1395.24 448.037C1401.5 449.432 1402.53 451.872 1402.19 453.596Z" fill="white"/>
<path d="M1109.04 340.212C1104.71 341.072 1115.3 348.565 1116.34 349.606C1117.38 350.647 1126.77 358.651 1126.77 362.479C1126.77 366.301 1133.02 375.343 1134.76 376.728C1136.51 378.124 1145.2 383.342 1146.59 386.122C1147.99 388.909 1151.11 389.612 1151.11 385.774C1151.11 381.946 1151.81 377.425 1153.53 375.343C1155.28 373.249 1154.58 370.12 1151.81 370.471C1149.03 370.825 1146.59 365.949 1142.07 362.826C1137.55 359.685 1134.07 357.603 1129.9 353.086C1125.73 348.565 1120.51 345.781 1117.73 343.341C1114.94 340.905 1110.77 339.864 1109.04 340.212Z" fill="white"/>
<path d="M1122.59 321.78C1119.82 322.125 1119.82 327.347 1121.19 329.088C1122.59 330.826 1125.38 329.777 1127.11 336.036C1128.86 342.3 1132.34 348.564 1133.72 350.998C1135.11 353.428 1141.03 356.907 1143.12 358.651C1145.2 360.384 1148.32 357.948 1146.95 355.86C1145.55 353.778 1142.76 350.647 1142.41 348.21C1142.07 345.781 1140.32 341.946 1137.55 337.776C1134.76 333.6 1132.34 332.559 1130.6 329.777C1128.86 326.991 1122.59 321.78 1122.59 321.78Z" fill="white"/>
<path d="M1151.81 387.517C1149.28 390.69 1152.5 393.086 1153.54 393.775C1154.58 394.468 1158.42 395.168 1161.9 394.816C1165.37 394.468 1170.23 393.428 1166.42 391.345C1162.59 389.257 1158.07 391.345 1156.67 388.564C1155.29 385.774 1153.2 385.774 1151.81 387.517Z" fill="white"/>
<path d="M1171.98 390.305C1169.54 391.346 1165.72 392.033 1168.5 394.469C1171.28 396.905 1173.02 397.946 1177.2 397.604C1181.36 397.256 1187.63 399.692 1187.97 397.604C1188.33 395.522 1184.15 392.381 1182.42 392.381C1180.68 392.381 1171.98 390.305 1171.98 390.305Z" fill="white"/>
<path d="M1206.05 401.78C1205.27 404.884 1211.27 406.304 1211.62 402.827C1211.96 399.345 1206.76 398.999 1206.05 401.78Z" fill="white"/>
<path d="M1224.5 404.216C1225.04 408.018 1232.13 402.128 1232.13 402.128C1232.13 402.128 1237.71 401.432 1237.71 398.998C1237.71 396.562 1232.13 393.427 1230.05 396.208C1227.96 398.998 1224.15 401.779 1224.5 404.216Z" fill="white"/>
<path d="M1209.19 365.26C1207.1 365.949 1207.45 367.702 1206.76 371.16C1206.06 374.647 1202.94 377.077 1205.71 378.824C1208.5 380.56 1213.71 372.913 1215.1 375.343C1216.5 377.782 1214.75 378.824 1217.19 381.945C1219.62 385.081 1224.15 384.733 1224.15 384.733C1224.15 384.733 1223.8 376.384 1219.97 374.296C1216.14 372.208 1213.71 369.784 1218.23 370.471C1222.75 371.16 1225.19 369.436 1224.15 367.348C1223.11 365.26 1216.5 366.301 1214.39 366.655C1212.31 366.99 1209.19 365.26 1209.19 365.26Z" fill="white"/>
<path d="M1211.27 358.296C1208.85 360.733 1210.57 363.172 1214.39 362.827C1218.22 362.479 1226.22 361.432 1227.96 361.432C1229.71 361.432 1232.13 356.907 1230.75 356.907C1229.36 356.907 1219.62 358.652 1218.58 359.002C1217.53 359.344 1211.27 358.296 1211.27 358.296Z" fill="white"/>
<path d="M1246.74 353.428C1243.55 352.07 1237.7 364.902 1241.88 365.949C1246.05 366.991 1249.18 354.468 1246.74 353.428Z" fill="white"/>
<path d="M1199.1 334.992C1198.96 332.534 1193.53 335.688 1193.18 338.118C1192.84 340.563 1197.01 342.646 1190.41 342.646C1183.79 342.646 1183.45 347.863 1182.06 348.916C1180.67 349.957 1179.28 350.299 1176.48 350.998C1173.71 351.694 1173.02 354.468 1172.33 356.214C1171.62 357.948 1166.76 353.086 1165.37 354.468C1163.97 355.86 1165.03 362.479 1167.46 368.038C1169.89 373.6 1176.15 377.077 1177.88 377.077C1179.62 377.077 1183.11 377.077 1185.55 377.783C1187.97 378.472 1195.97 379.166 1195.63 376.036C1195.27 372.913 1194.58 368.038 1198.05 364.902C1201.54 361.779 1205.01 360.043 1203.28 355.509C1201.54 350.998 1198.05 348.211 1200.49 346.128C1202.93 344.04 1205.71 343.341 1205.71 341.605C1205.71 339.864 1199.8 346.477 1199.1 334.992Z" fill="white"/>
<path d="M1216.14 285.952C1213.7 285.952 1216.49 289.783 1213.01 292.216C1209.54 294.641 1205.71 295.686 1207.79 299.861C1209.87 304.036 1217.19 307.164 1215.43 308.91C1213.7 310.647 1208.49 314.13 1207.79 317.256C1207.1 320.379 1216.14 312.381 1218.58 309.247C1221.01 306.119 1225.87 307.867 1226.93 306.119C1227.96 304.383 1227.96 304.383 1227.96 304.383C1227.96 304.383 1224.15 303.684 1221.01 302.646C1217.88 301.599 1214.07 305.43 1215.8 299.861C1217.53 294.303 1222.74 295.347 1221.7 291.171C1220.66 286.997 1217.19 285.952 1216.14 285.952Z" fill="white"/>
<path d="M1219.27 316.214C1218.09 316.64 1215.1 322.82 1218.93 322.82C1222.75 322.82 1229.36 323.861 1227.96 322.124C1226.58 320.378 1223.1 314.815 1219.27 316.214Z" fill="white"/>
<path d="M1230.75 311.001C1229.36 310.898 1224.83 318.297 1231.09 317.949C1237.35 317.604 1235.61 311.339 1230.75 311.001Z" fill="white"/>
<path d="M1231.8 323.862C1226.93 330.135 1227.27 328.744 1223.79 327.348C1220.31 325.957 1214.75 330.471 1215.8 332.217C1216.83 333.954 1224.5 331.866 1226.22 334.993C1227.96 338.118 1227.96 338.476 1231.44 337.776C1234.93 337.077 1238.4 332.217 1237.35 329.778C1236.32 327.348 1231.8 323.862 1231.8 323.862Z" fill="white"/>
<path d="M1255.45 364.902C1252.83 367.517 1251.61 367.702 1257.53 368.737C1263.43 369.784 1265.17 369.784 1262.74 372.559C1260.31 375.343 1258.57 378.824 1260.65 379.166C1262.74 379.519 1269 377.783 1269.69 379.166C1270.39 380.56 1268.31 380.904 1275.26 381.946C1282.21 382.999 1283.61 385.442 1285 386.821C1286.37 388.21 1290.56 392.734 1287.78 392.734C1285 392.734 1281.87 396.209 1283.95 396.563C1286.04 396.904 1292.3 395.522 1292.66 396.563C1293 397.604 1296.48 404.216 1299.95 403.868C1303.43 403.514 1305.51 397.256 1307.23 395.522C1308.99 393.775 1315.94 392.734 1316.63 395.863C1317.34 398.998 1319.43 402.128 1323.6 404.216C1327.76 406.304 1332.64 408.386 1332.99 406.649C1333.33 404.909 1330.89 398.303 1328.11 397.256C1325.33 396.209 1320.47 390.304 1320.47 387.862C1320.47 385.442 1316.3 384.733 1314.22 382.999C1312.11 381.26 1310.38 376.384 1305.16 375.343C1299.95 374.296 1298.56 372.559 1293 369.784C1287.42 366.991 1274.91 366.991 1274.56 368.737C1274.22 370.471 1274.56 368.737 1270.39 367.348C1266.21 365.949 1263.09 367.348 1262.05 364.902C1261.01 362.479 1258.57 361.779 1255.45 364.902Z" fill="white"/>
</svg>
