<svg width="32" height="32" viewBox="0 0 32 32" fill="none" xmlns="http://www.w3.org/2000/svg">
<path d="M16 0C7.164 0 0 7.164 0 16C0 24.836 7.164 32 16 32C24.836 32 32 24.836 32 16C32 7.164 24.836 0 16 0ZM24.44 10.857C24.366 10.981 23.986 11.416 23.58 11.813C22.892 12.496 22.855 12.57 22.855 13.142C22.855 14.023 22.438 15.862 22.02 16.867C21.246 18.755 19.588 20.705 17.929 21.687C15.595 23.065 12.487 23.414 9.87 22.606C8.998 22.332 7.499 21.637 7.499 21.513C7.499 21.475 7.953 21.426 8.507 21.413C9.662 21.389 10.817 21.067 11.799 20.494L12.462 20.096L11.7 19.836C10.619 19.463 9.649 18.606 9.403 17.799C9.329 17.538 9.354 17.525 10.041 17.525L10.753 17.513L10.151 17.227C9.438 16.866 8.787 16.259 8.468 15.637C8.235 15.19 7.94 14.06 8.026 13.973C8.051 13.936 8.309 14.011 8.603 14.11C9.45 14.421 9.561 14.346 9.07 13.824C8.149 12.88 7.866 11.477 8.308 10.148L8.517 9.552L9.328 10.359C10.987 11.986 12.94 12.955 15.175 13.24L15.789 13.314L15.752 12.705C15.642 11.128 16.612 9.687 18.148 9.128C18.713 8.929 19.672 8.905 20.298 9.078C20.544 9.152 21.01 9.401 21.342 9.624L21.944 10.034L22.607 9.822C22.976 9.711 23.467 9.524 23.688 9.4C23.897 9.288 24.081 9.226 24.081 9.263C24.081 9.474 23.626 10.195 23.246 10.592C22.729 11.151 22.877 11.201 23.921 10.828C24.55 10.621 24.563 10.621 24.44 10.857Z" fill="#404450"/>
</svg>
