<svg width="32" height="32" viewBox="0 0 32 32" fill="none" xmlns="http://www.w3.org/2000/svg">
<path d="M14.975 14.7439C12.706 14.1819 13.948 12.2009 15.786 12.2309C17.57 12.2599 18.478 14.1809 19.287 14.0819C20.098 13.9819 20.788 12.7439 19.514 11.6359C18.412 10.6769 17.018 10.1479 14.878 10.3459C13.199 10.5009 11.603 11.6029 11.409 13.7509C11.215 15.9009 13.712 16.9919 15.689 17.2899C17.074 17.4979 18.964 18.1819 17.829 19.5039C16.786 20.7199 14.814 19.9679 14.295 19.6379C13.776 19.3059 13.192 18.1159 12.219 18.1819C11.246 18.2479 10.766 19.5519 11.961 20.6959C13.031 21.7199 14.199 22.2829 16.694 22.1499C19.191 22.0169 21.428 19.7689 20.552 17.6529C19.677 15.5379 17.245 15.3069 14.975 14.7439Z" fill="#404450"/>
<path d="M16 0C7.164 0 0 7.164 0 16C0 24.836 7.164 32 16 32C24.836 32 32 24.836 32 16C32 7.164 24.836 0 16 0ZM19.861 24.543C18.953 24.543 18.105 24.279 17.386 23.827C16.923 23.912 16.447 23.96 15.958 23.96C11.624 23.96 8.114 20.415 8.114 16.042C8.114 15.618 8.147 15.201 8.211 14.794C7.734 14.049 7.457 13.163 7.457 12.208C7.457 9.584 9.552 7.458 12.139 7.458C13.082 7.458 13.959 7.742 14.696 8.229C15.107 8.161 15.529 8.124 15.96 8.124C20.293 8.124 23.805 11.67 23.805 16.042C23.805 16.406 23.778 16.764 23.731 17.116C24.245 17.878 24.543 18.8 24.543 19.792C24.543 22.416 22.448 24.543 19.861 24.543Z" fill="#404450"/>
</svg>
