<svg width="32" height="32" viewBox="0 0 32 32" fill="none" xmlns="http://www.w3.org/2000/svg">
<path d="M20.8419 16.139C20.8419 18.723 18.6789 20.819 16.0109 20.819C13.3449 20.819 11.1809 18.722 11.1809 16.139C11.1809 15.675 11.2519 15.228 11.3819 14.805L10.1709 14.542V21.343C10.1709 21.684 10.3169 21.829 10.6569 21.829H21.3439C21.6839 21.829 21.8299 21.684 21.8299 21.343V14.542L20.6419 14.805C20.7709 15.229 20.8419 15.675 20.8419 16.139Z" fill="#404450"/>
<path d="M16.0109 18.9958C17.7346 18.9958 19.1319 17.6415 19.1319 15.9708C19.1319 14.3001 17.7346 12.9458 16.0109 12.9458C14.2872 12.9458 12.8899 14.3001 12.8899 15.9708C12.8899 17.6415 14.2872 18.9958 16.0109 18.9958Z" fill="#404450"/>
<path d="M16 0C7.164 0 0 7.163 0 16C0 24.837 7.164 32 16 32C24.836 32 32 24.836 32 16C32 7.164 24.836 0 16 0ZM23.773 21.829C23.773 22.926 22.927 23.772 21.83 23.772H10.171C9.074 23.772 8.228 22.926 8.228 21.829V10.17C8.228 9.073 9.074 8.227 10.171 8.227H21.83C22.927 8.227 23.773 9.073 23.773 10.17V21.829Z" fill="#404450"/>
<path d="M21.3441 10.1699H19.4001C19.1311 10.1699 18.9141 10.3869 18.9141 10.6559V12.5989C18.9141 12.8679 19.1311 13.0849 19.4001 13.0849H21.3431C21.6121 13.0849 21.8291 12.8679 21.8291 12.5989V10.6559C21.8291 10.3879 21.6121 10.1699 21.3441 10.1699Z" fill="#404450"/>
</svg>
