<svg width="770" height="226" viewBox="0 0 770 226" fill="none" xmlns="http://www.w3.org/2000/svg">
<path d="M45.7167 201.884H765.185" stroke="#DDE3EB" stroke-width="1.04905"/>
<path d="M45.7167 209.104V201.885" stroke="#DDE3EB" stroke-width="1.04905"/>
<path d="M48.5385 217.286C48.5385 218.618 48.3111 219.607 47.8562 220.255C47.4014 220.902 46.6904 221.226 45.7233 221.226C44.7685 221.226 44.0616 220.911 43.6027 220.279C43.1437 219.644 42.906 218.698 42.8897 217.44V215.921C42.8897 214.606 43.1171 213.629 43.5719 212.989C44.0268 212.35 44.7398 212.031 45.711 212.031C46.674 212.031 47.3829 212.34 47.8378 212.959C48.2927 213.573 48.5262 214.524 48.5385 215.811V217.286ZM47.4014 215.731C47.4014 214.768 47.2661 214.067 46.9957 213.629C46.7252 213.186 46.297 212.965 45.711 212.965C45.1291 212.965 44.705 213.184 44.4386 213.623C44.1723 214.061 44.035 214.735 44.0268 215.645V217.464C44.0268 218.431 44.1661 219.146 44.4448 219.609C44.7275 220.068 45.1537 220.298 45.7233 220.298C46.2847 220.298 46.7006 220.081 46.9711 219.646C47.2457 219.212 47.3891 218.528 47.4014 217.593V215.731Z" fill="#DDE3EB"/>
<path d="M81.6912 209.104V201.885" stroke="#DDE3EB" stroke-width="1.04905"/>
<path d="M82.6381 221.103H81.4948V213.524L79.2021 214.367V213.334L82.4599 212.111H82.6381V221.103Z" fill="#DDE3EB"/>
<path d="M117.664 209.104V201.885" stroke="#DDE3EB" stroke-width="1.04905"/>
<path d="M120.738 221.103H114.874V220.286L117.972 216.844C118.431 216.323 118.746 215.901 118.918 215.577C119.095 215.25 119.183 214.912 119.183 214.563C119.183 214.096 119.041 213.713 118.759 213.414C118.476 213.115 118.099 212.965 117.628 212.965C117.062 212.965 116.622 213.127 116.306 213.451C115.995 213.77 115.839 214.217 115.839 214.791H114.702C114.702 213.967 114.966 213.301 115.495 212.793C116.027 212.285 116.738 212.031 117.628 212.031C118.46 212.031 119.117 212.25 119.601 212.688C120.084 213.123 120.326 213.703 120.326 214.428C120.326 215.309 119.765 216.358 118.642 217.575L116.245 220.175H120.738V221.103Z" fill="#DDE3EB"/>
<path d="M153.637 209.104V201.885" stroke="#DDE3EB" stroke-width="1.04905"/>
<path d="M152.501 216.075H153.355C153.892 216.067 154.314 215.926 154.621 215.651C154.929 215.377 155.082 215.006 155.082 214.539C155.082 213.49 154.56 212.965 153.515 212.965C153.023 212.965 152.63 213.106 152.335 213.389C152.044 213.668 151.898 214.039 151.898 214.502H150.761C150.761 213.793 151.019 213.205 151.536 212.738C152.056 212.266 152.716 212.031 153.515 212.031C154.359 212.031 155.021 212.254 155.5 212.701C155.98 213.147 156.219 213.768 156.219 214.563C156.219 214.953 156.092 215.33 155.838 215.694C155.588 216.059 155.246 216.331 154.812 216.512C155.303 216.667 155.683 216.926 155.949 217.286C156.219 217.647 156.355 218.087 156.355 218.608C156.355 219.411 156.092 220.048 155.568 220.519C155.043 220.991 154.361 221.226 153.521 221.226C152.681 221.226 151.997 220.999 151.468 220.544C150.943 220.089 150.681 219.489 150.681 218.743H151.824C151.824 219.214 151.978 219.591 152.285 219.874C152.593 220.157 153.005 220.298 153.521 220.298C154.07 220.298 154.49 220.155 154.781 219.868C155.072 219.581 155.217 219.169 155.217 218.632C155.217 218.112 155.058 217.712 154.738 217.434C154.418 217.155 153.957 217.012 153.355 217.004H152.501V216.075Z" fill="#DDE3EB"/>
<path d="M189.61 209.104V201.885" stroke="#DDE3EB" stroke-width="1.04905"/>
<path d="M191.621 218.098H192.862V219.026H191.621V221.103H190.477V219.026H186.402V218.356L190.41 212.154H191.621V218.098ZM187.693 218.098H190.477V213.709L190.342 213.955L187.693 218.098Z" fill="#DDE3EB"/>
<path d="M225.586 209.104V201.885" stroke="#DDE3EB" stroke-width="1.04905"/>
<path d="M223.318 216.616L223.773 212.154H228.358V213.205H224.738L224.467 215.645C224.906 215.387 225.404 215.258 225.961 215.258C226.776 215.258 227.424 215.528 227.903 216.069C228.383 216.606 228.622 217.333 228.622 218.251C228.622 219.173 228.372 219.901 227.873 220.433C227.377 220.962 226.682 221.226 225.789 221.226C224.998 221.226 224.352 221.007 223.853 220.569C223.353 220.13 223.068 219.524 222.998 218.749H224.074C224.143 219.261 224.326 219.649 224.621 219.911C224.916 220.169 225.305 220.298 225.789 220.298C226.317 220.298 226.731 220.118 227.03 219.757C227.334 219.397 227.485 218.899 227.485 218.264C227.485 217.665 227.321 217.186 226.994 216.825C226.67 216.461 226.237 216.278 225.697 216.278C225.201 216.278 224.811 216.387 224.529 216.604L224.228 216.85L223.318 216.616Z" fill="#DDE3EB"/>
<path d="M261.559 209.104V201.885" stroke="#DDE3EB" stroke-width="1.04905"/>
<path d="M263.231 212.148V213.113H263.022C262.137 213.129 261.432 213.391 260.908 213.899C260.383 214.408 260.08 215.123 259.998 216.045C260.469 215.504 261.112 215.233 261.928 215.233C262.706 215.233 263.327 215.508 263.79 216.057C264.258 216.606 264.491 217.315 264.491 218.184C264.491 219.106 264.239 219.843 263.735 220.397C263.235 220.95 262.563 221.226 261.719 221.226C260.862 221.226 260.168 220.899 259.635 220.243C259.102 219.583 258.836 218.735 258.836 217.698V217.262C258.836 215.614 259.186 214.356 259.887 213.488C260.592 212.615 261.639 212.168 263.028 212.148H263.231ZM261.737 216.18C261.348 216.18 260.989 216.297 260.662 216.53C260.334 216.764 260.106 217.057 259.979 217.409V217.827C259.979 218.565 260.145 219.159 260.477 219.61C260.809 220.06 261.223 220.286 261.719 220.286C262.231 220.286 262.633 220.097 262.924 219.72C263.219 219.343 263.366 218.85 263.366 218.239C263.366 217.624 263.217 217.128 262.918 216.751C262.622 216.37 262.229 216.18 261.737 216.18Z" fill="#DDE3EB"/>
<path d="M297.534 209.104V201.885" stroke="#DDE3EB" stroke-width="1.04905"/>
<path d="M300.522 212.793L296.815 221.103H295.623L299.317 213.088H294.473V212.154H300.522V212.793Z" fill="#DDE3EB"/>
<path d="M333.503 209.104V201.885" stroke="#DDE3EB" stroke-width="1.04905"/>
<path d="M336.14 214.489C336.14 214.936 336.021 215.334 335.784 215.682C335.55 216.03 335.232 216.303 334.831 216.499C335.298 216.7 335.667 216.993 335.937 217.378C336.212 217.764 336.349 218.2 336.349 218.688C336.349 219.462 336.087 220.079 335.562 220.538C335.042 220.997 334.356 221.226 333.503 221.226C332.643 221.226 331.952 220.997 331.432 220.538C330.915 220.075 330.657 219.458 330.657 218.688C330.657 218.204 330.788 217.768 331.051 217.378C331.317 216.989 331.684 216.694 332.151 216.493C331.753 216.297 331.44 216.024 331.21 215.676C330.981 215.327 330.866 214.932 330.866 214.489C330.866 213.735 331.108 213.137 331.592 212.695C332.075 212.252 332.712 212.031 333.503 212.031C334.29 212.031 334.925 212.252 335.409 212.695C335.896 213.137 336.14 213.735 336.14 214.489ZM335.212 218.663C335.212 218.163 335.052 217.755 334.733 217.44C334.417 217.124 334.003 216.967 333.491 216.967C332.979 216.967 332.567 217.122 332.255 217.434C331.948 217.745 331.794 218.155 331.794 218.663C331.794 219.171 331.944 219.571 332.243 219.862C332.546 220.153 332.966 220.298 333.503 220.298C334.036 220.298 334.454 220.153 334.757 219.862C335.06 219.567 335.212 219.167 335.212 218.663ZM333.503 212.965C333.057 212.965 332.694 213.104 332.415 213.383C332.141 213.658 332.003 214.033 332.003 214.508C332.003 214.963 332.139 215.332 332.409 215.614C332.684 215.893 333.048 216.032 333.503 216.032C333.958 216.032 334.321 215.893 334.591 215.614C334.866 215.332 335.003 214.963 335.003 214.508C335.003 214.053 334.862 213.682 334.579 213.395C334.296 213.109 333.938 212.965 333.503 212.965Z" fill="#DDE3EB"/>
<path d="M369.478 209.104V201.885" stroke="#DDE3EB" stroke-width="1.04905"/>
<path d="M371.046 217.169C370.808 217.452 370.523 217.68 370.191 217.852C369.864 218.024 369.503 218.11 369.11 218.11C368.593 218.11 368.142 217.983 367.757 217.729C367.376 217.475 367.081 217.118 366.872 216.659C366.663 216.196 366.559 215.686 366.559 215.129C366.559 214.53 366.671 213.992 366.897 213.512C367.126 213.033 367.45 212.666 367.868 212.412C368.286 212.158 368.774 212.031 369.331 212.031C370.216 212.031 370.913 212.363 371.421 213.027C371.933 213.686 372.189 214.588 372.189 215.731V216.063C372.189 217.805 371.845 219.077 371.156 219.88C370.468 220.679 369.429 221.089 368.04 221.11H367.819V220.151H368.058C368.997 220.134 369.718 219.89 370.222 219.419C370.726 218.944 371.001 218.194 371.046 217.169ZM369.294 217.169C369.675 217.169 370.025 217.053 370.345 216.819C370.669 216.586 370.904 216.297 371.052 215.952V215.498C371.052 214.752 370.89 214.145 370.566 213.678C370.243 213.211 369.833 212.977 369.337 212.977C368.837 212.977 368.435 213.17 368.132 213.555C367.829 213.936 367.677 214.44 367.677 215.067C367.677 215.678 367.823 216.182 368.114 216.579C368.409 216.973 368.802 217.169 369.294 217.169Z" fill="#DDE3EB"/>
<path d="M405.452 209.104V201.885" stroke="#DDE3EB" stroke-width="1.04905"/>
<path d="M402.864 221.103H401.721V213.524L399.428 214.367V213.334L402.686 212.111H402.864V221.103ZM411.808 217.286C411.808 218.618 411.581 219.608 411.126 220.255C410.671 220.903 409.96 221.226 408.993 221.226C408.038 221.226 407.331 220.911 406.872 220.28C406.413 219.645 406.176 218.698 406.159 217.44V215.922C406.159 214.606 406.387 213.629 406.841 212.99C407.296 212.35 408.009 212.031 408.981 212.031C409.943 212.031 410.652 212.34 411.107 212.959C411.562 213.574 411.796 214.524 411.808 215.811V217.286ZM410.671 215.731C410.671 214.768 410.536 214.067 410.265 213.629C409.995 213.186 409.566 212.965 408.981 212.965C408.399 212.965 407.974 213.184 407.708 213.623C407.442 214.061 407.304 214.735 407.296 215.645V217.465C407.296 218.432 407.436 219.147 407.714 219.61C407.997 220.069 408.423 220.298 408.993 220.298C409.554 220.298 409.97 220.081 410.241 219.647C410.515 219.212 410.659 218.528 410.671 217.594V215.731Z" fill="#DDE3EB"/>
<path d="M441.427 209.104V201.885" stroke="#DDE3EB" stroke-width="1.04905"/>
<path d="M438.84 221.103H437.696V213.524L435.404 214.367V213.334L438.661 212.111H438.84V221.103ZM445.908 221.103H444.765V213.524L442.472 214.367V213.334L445.73 212.111H445.908V221.103Z" fill="#DDE3EB"/>
<path d="M477.4 209.104V201.885" stroke="#DDE3EB" stroke-width="1.04905"/>
<path d="M474.813 221.103H473.67V213.524L471.377 214.367V213.334L474.635 212.111H474.813V221.103ZM484.008 221.103H478.144V220.286L481.242 216.844C481.701 216.323 482.017 215.901 482.189 215.577C482.365 215.25 482.453 214.912 482.453 214.563C482.453 214.096 482.312 213.713 482.029 213.414C481.746 213.115 481.369 212.965 480.898 212.965C480.333 212.965 479.892 213.127 479.577 213.451C479.265 213.77 479.109 214.217 479.109 214.791H477.972C477.972 213.967 478.237 213.301 478.765 212.793C479.298 212.285 480.009 212.031 480.898 212.031C481.73 212.031 482.388 212.25 482.871 212.688C483.355 213.123 483.597 213.703 483.597 214.428C483.597 215.309 483.035 216.358 481.912 217.575L479.515 220.175H484.008V221.103Z" fill="#DDE3EB"/>
<path d="M513.371 209.104V201.885" stroke="#DDE3EB" stroke-width="1.04905"/>
<path d="M510.784 221.103H509.641V213.524L507.348 214.367V213.334L510.606 212.111H510.784V221.103ZM515.769 216.075H516.623C517.16 216.067 517.582 215.926 517.889 215.651C518.197 215.377 518.35 215.006 518.35 214.539C518.35 213.49 517.828 212.965 516.783 212.965C516.291 212.965 515.898 213.106 515.603 213.389C515.312 213.668 515.166 214.039 515.166 214.502H514.029C514.029 213.793 514.287 213.205 514.804 212.738C515.324 212.266 515.984 212.031 516.783 212.031C517.627 212.031 518.289 212.254 518.768 212.701C519.248 213.147 519.488 213.768 519.488 214.563C519.488 214.953 519.361 215.33 519.107 215.694C518.857 216.059 518.514 216.331 518.08 216.512C518.572 216.667 518.951 216.926 519.217 217.286C519.488 217.647 519.623 218.087 519.623 218.608C519.623 219.411 519.361 220.048 518.836 220.519C518.312 220.991 517.629 221.226 516.789 221.226C515.949 221.226 515.265 220.999 514.736 220.544C514.212 220.089 513.949 219.489 513.949 218.743H515.093C515.093 219.214 515.246 219.591 515.554 219.874C515.861 220.157 516.273 220.298 516.789 220.298C517.338 220.298 517.758 220.155 518.049 219.868C518.34 219.581 518.486 219.169 518.486 218.632C518.486 218.112 518.326 217.712 518.006 217.434C517.687 217.155 517.226 217.012 516.623 217.004H515.769V216.075Z" fill="#DDE3EB"/>
<path d="M549.346 209.104V201.885" stroke="#DDE3EB" stroke-width="1.04905"/>
<path d="M546.759 221.103H545.616V213.524L543.323 214.367V213.334L546.581 212.111H546.759V221.103ZM554.891 218.098H556.133V219.026H554.891V221.103H553.748V219.026H549.673V218.356L553.68 212.154H554.891V218.098ZM550.963 218.098H553.748V213.709L553.613 213.955L550.963 218.098Z" fill="#DDE3EB"/>
<path d="M585.317 209.104V201.885" stroke="#DDE3EB" stroke-width="1.04905"/>
<path d="M582.73 221.103H581.587V213.524L579.294 214.367V213.334L582.552 212.111H582.73V221.103ZM586.584 216.616L587.039 212.154H591.624V213.205H588.004L587.734 215.645C588.172 215.387 588.67 215.258 589.227 215.258C590.043 215.258 590.69 215.528 591.17 216.069C591.649 216.606 591.889 217.333 591.889 218.251C591.889 219.173 591.639 219.901 591.139 220.433C590.643 220.962 589.948 221.226 589.055 221.226C588.264 221.226 587.619 221.007 587.119 220.569C586.619 220.13 586.334 219.524 586.264 218.749H587.34C587.41 219.261 587.592 219.649 587.887 219.911C588.182 220.169 588.572 220.298 589.055 220.298C589.584 220.298 589.998 220.118 590.297 219.757C590.6 219.397 590.752 218.899 590.752 218.264C590.752 217.665 590.588 217.186 590.26 216.825C589.936 216.461 589.504 216.278 588.963 216.278C588.467 216.278 588.078 216.387 587.795 216.604L587.494 216.85L586.584 216.616Z" fill="#DDE3EB"/>
<path d="M621.292 209.104V201.885" stroke="#DDE3EB" stroke-width="1.04905"/>
<path d="M618.705 221.103H617.562V213.524L615.269 214.367V213.334L618.527 212.111H618.705V221.103ZM626.499 212.148V213.113H626.29C625.405 213.129 624.7 213.391 624.176 213.899C623.651 214.408 623.348 215.123 623.266 216.045C623.737 215.504 624.381 215.233 625.196 215.233C625.975 215.233 626.596 215.508 627.059 216.057C627.526 216.606 627.759 217.315 627.759 218.184C627.759 219.106 627.507 219.843 627.003 220.397C626.503 220.95 625.831 221.226 624.987 221.226C624.131 221.226 623.436 220.899 622.904 220.243C622.371 219.583 622.104 218.735 622.104 217.698V217.262C622.104 215.614 622.455 214.356 623.156 213.488C623.86 212.615 624.907 212.168 626.297 212.148H626.499ZM625.006 216.18C624.616 216.18 624.258 216.297 623.93 216.53C623.602 216.764 623.375 217.057 623.248 217.409V217.827C623.248 218.565 623.414 219.159 623.746 219.61C624.078 220.06 624.491 220.286 624.987 220.286C625.5 220.286 625.901 220.097 626.192 219.72C626.487 219.343 626.635 218.85 626.635 218.239C626.635 217.624 626.485 217.128 626.186 216.751C625.891 216.37 625.497 216.18 625.006 216.18Z" fill="#DDE3EB"/>
<path d="M657.265 209.104V201.885" stroke="#DDE3EB" stroke-width="1.04905"/>
<path d="M654.678 221.103H653.535V213.524L651.242 214.367V213.334L654.5 212.111H654.678V221.103ZM663.788 212.793L660.081 221.103H658.889L662.583 213.088H657.739V212.154H663.788V212.793Z" fill="#DDE3EB"/>
<path d="M693.238 209.104V201.885" stroke="#DDE3EB" stroke-width="1.04905"/>
<path d="M690.651 221.103H689.508V213.524L687.215 214.367V213.334L690.473 212.111H690.651V221.103ZM699.411 214.489C699.411 214.936 699.292 215.334 699.054 215.682C698.821 216.03 698.503 216.303 698.101 216.499C698.568 216.7 698.937 216.993 699.208 217.378C699.482 217.764 699.62 218.2 699.62 218.688C699.62 219.462 699.357 220.079 698.833 220.538C698.312 220.997 697.626 221.226 696.774 221.226C695.913 221.226 695.223 220.997 694.702 220.538C694.186 220.075 693.928 219.458 693.928 218.688C693.928 218.204 694.059 217.768 694.321 217.378C694.587 216.989 694.954 216.694 695.421 216.493C695.024 216.297 694.71 216.024 694.481 215.676C694.251 215.327 694.137 214.932 694.137 214.489C694.137 213.735 694.378 213.137 694.862 212.695C695.346 212.252 695.983 212.031 696.774 212.031C697.56 212.031 698.196 212.252 698.679 212.695C699.167 213.137 699.411 213.735 699.411 214.489ZM698.482 218.663C698.482 218.163 698.323 217.755 698.003 217.44C697.687 217.124 697.274 216.967 696.761 216.967C696.249 216.967 695.837 217.122 695.526 217.434C695.219 217.745 695.065 218.155 695.065 218.663C695.065 219.171 695.214 219.571 695.514 219.862C695.817 220.153 696.237 220.298 696.774 220.298C697.306 220.298 697.724 220.153 698.028 219.862C698.331 219.567 698.482 219.167 698.482 218.663ZM696.774 212.965C696.327 212.965 695.964 213.104 695.686 213.383C695.411 213.658 695.274 214.033 695.274 214.508C695.274 214.963 695.409 215.332 695.68 215.614C695.954 215.893 696.319 216.032 696.774 216.032C697.229 216.032 697.591 215.893 697.862 215.614C698.136 215.332 698.273 214.963 698.273 214.508C698.273 214.053 698.132 213.682 697.849 213.395C697.567 213.109 697.208 212.965 696.774 212.965Z" fill="#DDE3EB"/>
<path d="M729.211 209.104V201.885" stroke="#DDE3EB" stroke-width="1.04905"/>
<path d="M726.624 221.103H725.481V213.524L723.188 214.367V213.334L726.446 212.111H726.624V221.103ZM734.314 217.169C734.076 217.452 733.792 217.68 733.46 217.852C733.132 218.024 732.771 218.11 732.378 218.11C731.862 218.11 731.411 217.983 731.026 217.729C730.644 217.475 730.349 217.118 730.14 216.659C729.931 216.196 729.827 215.686 729.827 215.129C729.827 214.53 729.94 213.992 730.165 213.512C730.395 213.033 730.718 212.666 731.136 212.412C731.554 212.158 732.042 212.031 732.599 212.031C733.484 212.031 734.181 212.363 734.689 213.027C735.201 213.686 735.457 214.588 735.457 215.731V216.063C735.457 217.805 735.113 219.077 734.425 219.88C733.736 220.679 732.697 221.089 731.308 221.11H731.087V220.151H731.327C732.265 220.134 732.986 219.89 733.49 219.419C733.994 218.944 734.269 218.194 734.314 217.169ZM732.562 217.169C732.943 217.169 733.294 217.053 733.613 216.819C733.937 216.586 734.173 216.297 734.32 215.952V215.498C734.32 214.752 734.158 214.145 733.835 213.678C733.511 213.211 733.101 212.977 732.605 212.977C732.105 212.977 731.704 213.17 731.401 213.555C731.097 213.936 730.946 214.44 730.946 215.067C730.946 215.678 731.091 216.182 731.382 216.579C731.677 216.973 732.071 217.169 732.562 217.169Z" fill="#DDE3EB"/>
<path d="M765.186 209.104V201.885" stroke="#DDE3EB" stroke-width="1.04905"/>
<path d="M761.116 221.103H755.252V220.286L758.349 216.844C758.808 216.323 759.124 215.901 759.296 215.577C759.472 215.25 759.56 214.912 759.56 214.563C759.56 214.096 759.419 213.713 759.136 213.414C758.854 213.115 758.477 212.965 758.005 212.965C757.44 212.965 756.999 213.127 756.684 213.451C756.372 213.77 756.217 214.217 756.217 214.791H755.079C755.079 213.967 755.344 213.301 755.872 212.793C756.405 212.285 757.116 212.031 758.005 212.031C758.837 212.031 759.495 212.25 759.978 212.688C760.462 213.123 760.704 213.703 760.704 214.428C760.704 215.309 760.142 216.358 759.019 217.575L756.622 220.175H761.116V221.103ZM767.932 217.286C767.932 218.618 767.705 219.608 767.25 220.255C766.795 220.903 766.084 221.226 765.117 221.226C764.162 221.226 763.455 220.911 762.996 220.28C762.537 219.645 762.3 218.698 762.283 217.44V215.922C762.283 214.606 762.511 213.629 762.966 212.99C763.421 212.35 764.134 212.031 765.105 212.031C766.068 212.031 766.777 212.34 767.232 212.959C767.686 213.574 767.92 214.524 767.932 215.811V217.286ZM766.795 215.731C766.795 214.768 766.66 214.067 766.389 213.629C766.119 213.186 765.691 212.965 765.105 212.965C764.523 212.965 764.099 213.184 763.832 213.623C763.566 214.061 763.429 214.735 763.421 215.645V217.465C763.421 218.432 763.56 219.147 763.839 219.61C764.121 220.069 764.547 220.298 765.117 220.298C765.678 220.298 766.094 220.081 766.365 219.647C766.639 219.212 766.783 218.528 766.795 217.594V215.731Z" fill="#DDE3EB"/>
<path d="M45.7196 9.38403V201.884" stroke="#DDE3EB" stroke-width="1.04905"/>
<path d="M38.4991 201.884H45.7179" stroke="#DDE3EB" stroke-width="1.04905"/>
<path d="M31.7714 195.629C31.7714 196.961 31.5439 197.951 31.0891 198.598C30.6342 199.246 29.9232 199.569 28.9561 199.569C28.0013 199.569 27.2945 199.254 26.8355 198.623C26.3765 197.988 26.1389 197.041 26.1225 195.783V194.265C26.1225 192.949 26.3499 191.972 26.8048 191.333C27.2596 190.693 27.9727 190.374 28.9438 190.374C29.9068 190.374 30.6158 190.683 31.0706 191.302C31.5255 191.917 31.7591 192.867 31.7714 194.154V195.629ZM30.6342 194.074C30.6342 193.111 30.499 192.41 30.2285 191.972C29.9581 191.529 29.5298 191.308 28.9438 191.308C28.362 191.308 27.9378 191.527 27.6715 191.966C27.4051 192.404 27.2678 193.078 27.2596 193.988V195.807C27.2596 196.775 27.399 197.49 27.6776 197.953C27.9604 198.412 28.3865 198.641 28.9561 198.641C29.5175 198.641 29.9335 198.424 30.2039 197.99C30.4785 197.555 30.6219 196.871 30.6342 195.937V194.074Z" fill="#DDE3EB"/>
<path d="M38.4988 153.759H45.7175" stroke="#DDE3EB" stroke-width="1.04905"/>
<path d="M17.8854 151.321H12.0214V150.504L15.1194 147.062C15.5783 146.541 15.8939 146.119 16.066 145.795C16.2422 145.468 16.3303 145.13 16.3303 144.781C16.3303 144.314 16.1889 143.931 15.9062 143.632C15.6234 143.333 15.2464 143.183 14.7751 143.183C14.2096 143.183 13.7691 143.345 13.4536 143.669C13.1422 143.988 12.9864 144.435 12.9864 145.009H11.8493C11.8493 144.185 12.1136 143.519 12.6422 143.011C13.1749 142.503 13.8859 142.249 14.7751 142.249C15.607 142.249 16.2647 142.468 16.7483 142.906C17.2318 143.341 17.4736 143.921 17.4736 144.646C17.4736 145.527 16.9122 146.576 15.7894 147.793L13.3921 150.393H17.8854V151.321ZM19.6126 146.834L20.0675 142.372H24.653V143.423H21.0325L20.7621 145.863C21.2006 145.605 21.6984 145.476 22.2557 145.476C23.0712 145.476 23.7187 145.746 24.1981 146.287C24.6776 146.824 24.9173 147.551 24.9173 148.469C24.9173 149.391 24.6673 150.119 24.1674 150.651C23.6716 151.18 22.977 151.444 22.0836 151.444C21.2928 151.444 20.6473 151.225 20.1474 150.787C19.6475 150.348 19.3627 149.742 19.293 148.967H20.3687C20.4384 149.479 20.6207 149.867 20.9158 150.129C21.2108 150.387 21.6001 150.516 22.0836 150.516C22.6123 150.516 23.0261 150.336 23.3253 149.975C23.6285 149.615 23.7801 149.117 23.7801 148.482C23.7801 147.883 23.6162 147.404 23.2884 147.043C22.9647 146.679 22.5324 146.496 21.9914 146.496C21.4956 146.496 21.1063 146.605 20.8236 146.822L20.5224 147.068L19.6126 146.834ZM31.7709 147.504C31.7709 148.836 31.5435 149.826 31.0886 150.473C30.6338 151.121 29.9228 151.444 28.9557 151.444C28.0009 151.444 27.294 151.129 26.8351 150.498C26.3761 149.863 26.1384 148.916 26.1221 147.658V146.14C26.1221 144.824 26.3495 143.847 26.8043 143.208C27.2592 142.568 27.9722 142.249 28.9434 142.249C29.9064 142.249 30.6153 142.558 31.0702 143.177C31.5251 143.792 31.7586 144.742 31.7709 146.029V147.504ZM30.6338 145.949C30.6338 144.986 30.4985 144.285 30.2281 143.847C29.9576 143.404 29.5294 143.183 28.9434 143.183C28.3615 143.183 27.9374 143.402 27.671 143.841C27.4047 144.279 27.2674 144.953 27.2592 145.863V147.682C27.2592 148.65 27.3985 149.365 27.6772 149.828C27.9599 150.287 28.3861 150.516 28.9557 150.516C29.5171 150.516 29.933 150.299 30.2035 149.865C30.4781 149.43 30.6215 148.746 30.6338 147.812V145.949Z" fill="#DDE3EB"/>
<path d="M38.4988 105.634H45.7175" stroke="#DDE3EB" stroke-width="1.04905"/>
<path d="M12.5439 98.7092L12.9987 94.2467H17.5842V95.2978H13.9638L13.6933 97.738C14.1318 97.4799 14.6297 97.3508 15.187 97.3508C16.0024 97.3508 16.6499 97.6212 17.1294 98.1622C17.6088 98.699 17.8485 99.4263 17.8485 100.344C17.8485 101.266 17.5986 101.994 17.0986 102.526C16.6028 103.055 15.9082 103.319 15.0149 103.319C14.224 103.319 13.5786 103.1 13.0786 102.662C12.5787 102.223 12.2939 101.617 12.2242 100.842H13.2999C13.3696 101.354 13.5519 101.742 13.847 102.004C14.142 102.262 14.5313 102.391 15.0149 102.391C15.5435 102.391 15.9574 102.211 16.2565 101.85C16.5598 101.49 16.7114 100.992 16.7114 100.357C16.7114 99.7583 16.5475 99.2788 16.2196 98.9182C15.8959 98.5535 15.4636 98.3711 14.9227 98.3711C14.4268 98.3711 14.0375 98.4797 13.7548 98.6969L13.4536 98.9428L12.5439 98.7092ZM24.7022 99.3792C24.7022 100.711 24.4747 101.701 24.0199 102.348C23.565 102.996 22.854 103.319 21.8869 103.319C20.9321 103.319 20.2253 103.004 19.7663 102.373C19.3074 101.738 19.0697 100.791 19.0533 99.5329V98.0146C19.0533 96.6992 19.2807 95.7219 19.7356 95.0826C20.1904 94.4434 20.9035 94.1237 21.8747 94.1237C22.8376 94.1237 23.5466 94.4331 24.0014 95.0519C24.4563 95.6666 24.6899 96.6173 24.7022 97.904V99.3792ZM23.565 97.8241C23.565 96.8611 23.4298 96.1604 23.1593 95.7219C22.8889 95.2793 22.4606 95.058 21.8747 95.058C21.2928 95.058 20.8686 95.2773 20.6023 95.7157C20.3359 96.1542 20.1986 96.8283 20.1904 97.738V99.5575C20.1904 100.525 20.3298 101.24 20.6084 101.703C20.8912 102.162 21.3173 102.391 21.8869 102.391C22.4483 102.391 22.8643 102.174 23.1347 101.74C23.4093 101.305 23.5527 100.621 23.565 99.6866V97.8241ZM31.7709 99.3792C31.7709 100.711 31.5435 101.701 31.0886 102.348C30.6338 102.996 29.9228 103.319 28.9557 103.319C28.0009 103.319 27.294 103.004 26.8351 102.373C26.3761 101.738 26.1384 100.791 26.1221 99.5329V98.0146C26.1221 96.6992 26.3495 95.7219 26.8043 95.0826C27.2592 94.4434 27.9722 94.1237 28.9434 94.1237C29.9064 94.1237 30.6153 94.4331 31.0702 95.0519C31.5251 95.6666 31.7586 96.6173 31.7709 97.904V99.3792ZM30.6338 97.8241C30.6338 96.8611 30.4985 96.1604 30.2281 95.7219C29.9576 95.2793 29.5294 95.058 28.9434 95.058C28.3615 95.058 27.9374 95.2773 27.671 95.7157C27.4047 96.1542 27.2674 96.8283 27.2592 97.738V99.5575C27.2592 100.525 27.3985 101.24 27.6772 101.703C27.9599 102.162 28.3861 102.391 28.9557 102.391C29.5171 102.391 29.933 102.174 30.2035 101.74C30.4781 101.305 30.6215 100.621 30.6338 99.6866V97.8241Z" fill="#DDE3EB"/>
<path d="M38.4988 57.5091H45.7175" stroke="#DDE3EB" stroke-width="1.04905"/>
<path d="M17.7994 46.7609L14.0929 55.0714H12.9004L16.5946 47.056H11.7509V46.1217H17.7994V46.7609ZM19.6126 50.5842L20.0675 46.1217H24.653V47.1728H21.0325L20.7621 49.613C21.2006 49.3549 21.6984 49.2258 22.2557 49.2258C23.0712 49.2258 23.7187 49.4962 24.1981 50.0372C24.6776 50.574 24.9173 51.3013 24.9173 52.2193C24.9173 53.1413 24.6673 53.8686 24.1674 54.4014C23.6716 54.93 22.977 55.1943 22.0836 55.1943C21.2928 55.1943 20.6473 54.9751 20.1474 54.5366C19.6475 54.0981 19.3627 53.4916 19.293 52.7171H20.3687C20.4384 53.2294 20.6207 53.6166 20.9158 53.8789C21.2108 54.137 21.6001 54.2661 22.0836 54.2661C22.6123 54.2661 23.0261 54.0858 23.3253 53.7252C23.6285 53.3646 23.7801 52.8667 23.7801 52.2315C23.7801 51.6333 23.6162 51.1538 23.2884 50.7932C22.9647 50.4285 22.5324 50.2461 21.9914 50.2461C21.4956 50.2461 21.1063 50.3547 20.8236 50.5719L20.5224 50.8178L19.6126 50.5842ZM31.7709 51.2542C31.7709 52.586 31.5435 53.5756 31.0886 54.2231C30.6338 54.8706 29.9228 55.1943 28.9557 55.1943C28.0009 55.1943 27.294 54.8788 26.8351 54.2477C26.3761 53.6125 26.1384 52.6659 26.1221 51.4079V49.8896C26.1221 48.5742 26.3495 47.5969 26.8043 46.9576C27.2592 46.3184 27.9722 45.9987 28.9434 45.9987C29.9064 45.9987 30.6153 46.3081 31.0702 46.9269C31.5251 47.5416 31.7586 48.4923 31.7709 49.779V51.2542ZM30.6338 49.6991C30.6338 48.7361 30.4985 48.0354 30.2281 47.5969C29.9576 47.1543 29.5294 46.933 28.9434 46.933C28.3615 46.933 27.9374 47.1523 27.671 47.5907C27.4047 48.0292 27.2674 48.7033 27.2592 49.613V51.4325C27.2592 52.3996 27.3985 53.1146 27.6772 53.5777C27.9599 54.0366 28.3861 54.2661 28.9557 54.2661C29.5171 54.2661 29.933 54.0489 30.2035 53.6146C30.4781 53.1802 30.6215 52.4959 30.6338 51.5616V49.6991Z" fill="#DDE3EB"/>
<path d="M38.4991 9.38403H45.7179" stroke="#DDE3EB" stroke-width="1.04905"/>
<path d="M8.69028 12H7.54699V4.42105L5.25425 5.26316V4.2305L8.51203 3.0073H8.69028V12ZM17.6338 8.18286C17.6338 9.51466 17.4064 10.5043 16.9515 11.1517C16.4967 11.7992 15.7857 12.1229 14.8186 12.1229C13.8638 12.1229 13.1569 11.8074 12.698 11.1763C12.239 10.5412 12.0013 9.59457 11.9849 8.33653V6.81829C11.9849 5.50288 12.2124 4.52555 12.6672 3.88628C13.1221 3.24702 13.8351 2.92739 14.8063 2.92739C15.7693 2.92739 16.4782 3.23678 16.9331 3.85555C17.3879 4.47022 17.6215 5.42092 17.6338 6.70764V8.18286ZM16.4967 6.62774C16.4967 5.66474 16.3614 4.96401 16.091 4.52555C15.8205 4.08298 15.3923 3.8617 14.8063 3.8617C14.2244 3.8617 13.8003 4.08093 13.5339 4.5194C13.2676 4.95787 13.1303 5.63196 13.1221 6.54168V8.36112C13.1221 9.32821 13.2614 10.0433 13.5401 10.5063C13.8228 10.9653 14.249 11.1948 14.8186 11.1948C15.38 11.1948 15.7959 10.9776 16.0664 10.5432C16.3409 10.1088 16.4844 9.42451 16.4967 8.4902V6.62774ZM24.7026 8.18286C24.7026 9.51466 24.4752 10.5043 24.0203 11.1517C23.5654 11.7992 22.8545 12.1229 21.8874 12.1229C20.9326 12.1229 20.2257 11.8074 19.7667 11.1763C19.3078 10.5412 19.0701 9.59457 19.0537 8.33653V6.81829C19.0537 5.50288 19.2811 4.52555 19.736 3.88628C20.1909 3.24702 20.9039 2.92739 21.8751 2.92739C22.8381 2.92739 23.547 3.23678 24.0019 3.85555C24.4567 4.47022 24.6903 5.42092 24.7026 6.70764V8.18286ZM23.5654 6.62774C23.5654 5.66474 23.4302 4.96401 23.1597 4.52555C22.8893 4.08298 22.4611 3.8617 21.8751 3.8617C21.2932 3.8617 20.8691 4.08093 20.6027 4.5194C20.3363 4.95787 20.1991 5.63196 20.1909 6.54168V8.36112C20.1909 9.32821 20.3302 10.0433 20.6088 10.5063C20.8916 10.9653 21.3178 11.1948 21.8874 11.1948C22.4488 11.1948 22.8647 10.9776 23.1352 10.5432C23.4097 10.1088 23.5531 9.42451 23.5654 8.4902V6.62774ZM31.7714 8.18286C31.7714 9.51466 31.5439 10.5043 31.0891 11.1517C30.6342 11.7992 29.9232 12.1229 28.9561 12.1229C28.0013 12.1229 27.2945 11.8074 26.8355 11.1763C26.3765 10.5412 26.1389 9.59457 26.1225 8.33653V6.81829C26.1225 5.50288 26.3499 4.52555 26.8048 3.88628C27.2596 3.24702 27.9727 2.92739 28.9438 2.92739C29.9068 2.92739 30.6158 3.23678 31.0706 3.85555C31.5255 4.47022 31.7591 5.42092 31.7714 6.70764V8.18286ZM30.6342 6.62774C30.6342 5.66474 30.499 4.96401 30.2285 4.52555C29.9581 4.08298 29.5298 3.8617 28.9438 3.8617C28.362 3.8617 27.9378 4.08093 27.6715 4.5194C27.4051 4.95787 27.2678 5.63196 27.2596 6.54168V8.36112C27.2596 9.32821 27.399 10.0433 27.6776 10.5063C27.9604 10.9653 28.3865 11.1948 28.9561 11.1948C29.5175 11.1948 29.9335 10.9776 30.2039 10.5432C30.4785 10.1088 30.6219 9.42451 30.6342 8.4902V6.62774Z" fill="#DDE3EB"/>
<path d="M45.719 201.885H765.188" stroke="#DDE3EB" stroke-width="1.04905"/>
<path d="M45.719 153.76H765.188" stroke="#DDE3EB" stroke-width="1.04905"/>
<path d="M45.719 105.635H765.188" stroke="#DDE3EB" stroke-width="1.04905"/>
<path d="M45.719 57.5096H765.188" stroke="#DDE3EB" stroke-width="1.04905"/>
<path d="M45.7184 9.3844H765.187" stroke="#DDE3EB" stroke-width="1.04905"/>
<path d="M45.7175 9.38403V201.884" stroke="#DDE3EB" stroke-width="1.04905"/>
<path d="M81.6912 9.38428V201.884" stroke="#DDE3EB" stroke-width="1.04905"/>
<path d="M117.666 9.38428V201.884" stroke="#DDE3EB" stroke-width="1.04905"/>
<path d="M153.637 9.38428V201.884" stroke="#DDE3EB" stroke-width="1.04905"/>
<path d="M189.61 9.38428V201.884" stroke="#DDE3EB" stroke-width="1.04905"/>
<path d="M225.585 9.38428V201.884" stroke="#DDE3EB" stroke-width="1.04905"/>
<path d="M261.56 9.38428V201.884" stroke="#DDE3EB" stroke-width="1.04905"/>
<path d="M297.532 9.38428V201.884" stroke="#DDE3EB" stroke-width="1.04905"/>
<path d="M333.503 9.38428V201.884" stroke="#DDE3EB" stroke-width="1.04905"/>
<path d="M369.478 9.38428V201.884" stroke="#DDE3EB" stroke-width="1.04905"/>
<path d="M405.451 9.38428V201.884" stroke="#DDE3EB" stroke-width="1.04905"/>
<path d="M441.426 9.38428V201.884" stroke="#DDE3EB" stroke-width="1.04905"/>
<path d="M477.399 9.38428V201.884" stroke="#DDE3EB" stroke-width="1.04905"/>
<path d="M513.372 9.38428V201.884" stroke="#DDE3EB" stroke-width="1.04905"/>
<path d="M549.344 9.38428V201.884" stroke="#DDE3EB" stroke-width="1.04905"/>
<path d="M585.319 9.38428V201.884" stroke="#DDE3EB" stroke-width="1.04905"/>
<path d="M621.292 9.38428V201.884" stroke="#DDE3EB" stroke-width="1.04905"/>
<path d="M657.267 9.38428V201.884" stroke="#DDE3EB" stroke-width="1.04905"/>
<path d="M693.238 9.38428V201.884" stroke="#DDE3EB" stroke-width="1.04905"/>
<path d="M729.213 9.38428V201.884" stroke="#DDE3EB" stroke-width="1.04905"/>
<path d="M765.186 9.38428V201.884" stroke="#DDE3EB" stroke-width="1.04905"/>
<path d="M45.7196 64.4392L81.693 56.7392L117.666 67.7117L153.64 40.9542L189.613 113.719L225.587 169.159L261.56 126.809L297.534 113.719L333.507 187.832L369.481 193.029L405.454 114.297L441.427 101.592L477.401 100.437L513.374 24.5917L549.348 30.5592L585.321 163.384L621.295 100.052L657.268 51.3492L693.241 88.8867L729.215 49.8092L765.188 25.7467" stroke="#2CBD2F" stroke-width="1.57357"/>
<path d="M45.7188 68.0487C47.7122 68.0487 49.3281 66.4327 49.3281 64.4393C49.3281 62.4459 47.7122 60.83 45.7188 60.83C43.7253 60.83 42.1094 62.4459 42.1094 64.4393C42.1094 66.4327 43.7253 68.0487 45.7188 68.0487Z" fill="white" stroke="#2CBD2F" stroke-width="1.57357"/>
<path d="M81.6936 60.3489C83.687 60.3489 85.303 58.7329 85.303 56.7395C85.303 54.7461 83.687 53.1301 81.6936 53.1301C79.7002 53.1301 78.0842 54.7461 78.0842 56.7395C78.0842 58.7329 79.7002 60.3489 81.6936 60.3489Z" fill="white" stroke="#2CBD2F" stroke-width="1.57357"/>
<path d="M117.667 71.3208C119.66 71.3208 121.276 69.7048 121.276 67.7114C121.276 65.718 119.66 64.1021 117.667 64.1021C115.673 64.1021 114.057 65.718 114.057 67.7114C114.057 69.7048 115.673 71.3208 117.667 71.3208Z" fill="white" stroke="#2CBD2F" stroke-width="1.57357"/>
<path d="M153.637 44.5629C155.631 44.5629 157.247 42.947 157.247 40.9536C157.247 38.9601 155.631 37.3442 153.637 37.3442C151.644 37.3442 150.028 38.9601 150.028 40.9536C150.028 42.947 151.644 44.5629 153.637 44.5629Z" fill="white" stroke="#2CBD2F" stroke-width="1.57357"/>
<path d="M189.612 117.329C191.606 117.329 193.222 115.713 193.222 113.72C193.222 111.727 191.606 110.111 189.612 110.111C187.619 110.111 186.003 111.727 186.003 113.72C186.003 115.713 187.619 117.329 189.612 117.329Z" fill="white" stroke="#2CBD2F" stroke-width="1.57357"/>
<path d="M225.585 172.769C227.578 172.769 229.194 171.153 229.194 169.16C229.194 167.166 227.578 165.55 225.585 165.55C223.592 165.55 221.976 167.166 221.976 169.16C221.976 171.153 223.592 172.769 225.585 172.769Z" fill="white" stroke="#2CBD2F" stroke-width="1.57357"/>
<path d="M261.56 130.419C263.553 130.419 265.169 128.803 265.169 126.809C265.169 124.816 263.553 123.2 261.56 123.2C259.567 123.2 257.951 124.816 257.951 126.809C257.951 128.803 259.567 130.419 261.56 130.419Z" fill="white" stroke="#2CBD2F" stroke-width="1.57357"/>
<path d="M297.533 117.329C299.526 117.329 301.142 115.713 301.142 113.72C301.142 111.727 299.526 110.111 297.533 110.111C295.54 110.111 293.924 111.727 293.924 113.72C293.924 115.713 295.54 117.329 297.533 117.329Z" fill="white" stroke="#2CBD2F" stroke-width="1.57357"/>
<path d="M333.506 191.441C335.499 191.441 337.115 189.825 337.115 187.831C337.115 185.838 335.499 184.222 333.506 184.222C331.512 184.222 329.896 185.838 329.896 187.831C329.896 189.825 331.512 191.441 333.506 191.441Z" fill="white" stroke="#2CBD2F" stroke-width="1.57357"/>
<path d="M369.479 196.639C371.472 196.639 373.088 195.023 373.088 193.029C373.088 191.036 371.472 189.42 369.479 189.42C367.485 189.42 365.869 191.036 365.869 193.029C365.869 195.023 367.485 196.639 369.479 196.639Z" fill="white" stroke="#2CBD2F" stroke-width="1.57357"/>
<path d="M405.454 117.906C407.447 117.906 409.063 116.29 409.063 114.297C409.063 112.303 407.447 110.687 405.454 110.687C403.46 110.687 401.844 112.303 401.844 114.297C401.844 116.29 403.46 117.906 405.454 117.906Z" fill="white" stroke="#2CBD2F" stroke-width="1.57357"/>
<path d="M441.426 105.202C443.42 105.202 445.036 103.586 445.036 101.592C445.036 99.5989 443.42 97.983 441.426 97.983C439.433 97.983 437.817 99.5989 437.817 101.592C437.817 103.586 439.433 105.202 441.426 105.202Z" fill="white" stroke="#2CBD2F" stroke-width="1.57357"/>
<path d="M477.401 104.046C479.395 104.046 481.011 102.43 481.011 100.437C481.011 98.4434 479.395 96.8274 477.401 96.8274C475.408 96.8274 473.792 98.4434 473.792 100.437C473.792 102.43 475.408 104.046 477.401 104.046Z" fill="white" stroke="#2CBD2F" stroke-width="1.57357"/>
<path d="M513.372 28.2013C515.365 28.2013 516.981 26.5853 516.981 24.5919C516.981 22.5985 515.365 20.9825 513.372 20.9825C511.379 20.9825 509.763 22.5985 509.763 24.5919C509.763 26.5853 511.379 28.2013 513.372 28.2013Z" fill="white" stroke="#2CBD2F" stroke-width="1.57357"/>
<path d="M549.347 34.1688C551.34 34.1688 552.956 32.5528 552.956 30.5594C552.956 28.566 551.34 26.95 549.347 26.95C547.354 26.95 545.738 28.566 545.738 30.5594C545.738 32.5528 547.354 34.1688 549.347 34.1688Z" fill="white" stroke="#2CBD2F" stroke-width="1.57357"/>
<path d="M585.32 166.994C587.313 166.994 588.929 165.378 588.929 163.385C588.929 161.391 587.313 159.775 585.32 159.775C583.327 159.775 581.711 161.391 581.711 163.385C581.711 165.378 583.327 166.994 585.32 166.994Z" fill="white" stroke="#2CBD2F" stroke-width="1.57357"/>
<path d="M621.295 103.661C623.288 103.661 624.904 102.045 624.904 100.052C624.904 98.0581 623.288 96.4421 621.295 96.4421C619.302 96.4421 617.686 98.0581 617.686 100.052C617.686 102.045 619.302 103.661 621.295 103.661Z" fill="white" stroke="#2CBD2F" stroke-width="1.57357"/>
<path d="M657.268 54.9592C659.261 54.9592 660.877 53.3432 660.877 51.3498C660.877 49.3564 659.261 47.7404 657.268 47.7404C655.274 47.7404 653.658 49.3564 653.658 51.3498C653.658 53.3432 655.274 54.9592 657.268 54.9592Z" fill="white" stroke="#2CBD2F" stroke-width="1.57357"/>
<path d="M693.24 92.4963C695.234 92.4963 696.85 90.8804 696.85 88.887C696.85 86.8936 695.234 85.2776 693.24 85.2776C691.247 85.2776 689.631 86.8936 689.631 88.887C689.631 90.8804 691.247 92.4963 693.24 92.4963Z" fill="white" stroke="#2CBD2F" stroke-width="1.57357"/>
<path d="M729.213 53.4183C731.207 53.4183 732.823 51.8024 732.823 49.809C732.823 47.8156 731.207 46.1996 729.213 46.1996C727.22 46.1996 725.604 47.8156 725.604 49.809C725.604 51.8024 727.22 53.4183 729.213 53.4183Z" fill="white" stroke="#2CBD2F" stroke-width="1.57357"/>
<path d="M765.188 29.3558C767.182 29.3558 768.798 27.7399 768.798 25.7465C768.798 23.7531 767.182 22.1371 765.188 22.1371C763.195 22.1371 761.579 23.7531 761.579 25.7465C761.579 27.7399 763.195 29.3558 765.188 29.3558Z" fill="white" stroke="#2CBD2F" stroke-width="1.57357"/>
</svg>
