<svg width="47" height="47" viewBox="0 0 47 47" fill="none" xmlns="http://www.w3.org/2000/svg">
<g filter="url(#filter0_i_284_876)">
<circle cx="23.5" cy="23.5" r="23.5" fill="#ED5F5F"/>
</g>
<circle cx="23.5" cy="23.5" r="22.5" stroke="url(#paint0_linear_284_876)" stroke-width="2"/>
<path d="M29.8736 17.3408C26.6036 17.3408 22.7036 19.6708 22.7036 25.2508V27.0008C22.7036 31.2608 26.0436 34.9308 29.8736 34.9308C33.7036 34.9308 37.0436 31.2608 37.0436 27.0008V25.2508C37.0436 19.6708 33.1436 17.3408 29.8736 17.3408Z" stroke="white" stroke-miterlimit="50"/>
<path d="M26.7437 30.5806H32.0036C32.3836 30.5806 32.7536 29.6306 33.0536 29.3906" stroke="white" stroke-width="1.04" stroke-miterlimit="50"/>
<path d="M33.3433 27.8209C30.8433 27.8209 30.1133 25.8709 29.9033 24.9009H36.7933C36.5933 25.8709 35.8633 27.8109 33.3433 27.8109V27.8209Z" fill="white"/>
<path d="M35.8935 25.8706C35.3735 26.8306 34.5435 27.3006 33.3535 27.3006C32.1735 27.3006 31.3535 26.8506 30.8335 25.9206C30.7335 25.7606 30.6535 25.5806 30.5935 25.4106H36.1035L35.9035 25.8706H35.8935ZM29.3135 24.3906C29.3135 24.3906 29.5335 28.3206 33.3535 28.3206C37.1735 28.3206 37.3835 24.3906 37.3835 24.3906H29.3135Z" fill="white"/>
<path d="M26.3936 27.8209C23.8936 27.8209 23.1636 25.8709 22.9536 24.9009H29.8436C29.6436 25.8709 28.9136 27.8109 26.3936 27.8109V27.8209Z" fill="white"/>
<path d="M28.9335 25.8706C28.4135 26.8306 27.5835 27.3006 26.3935 27.3006C25.2135 27.3006 24.3935 26.8506 23.8735 25.9206C23.7735 25.7606 23.6935 25.5806 23.6335 25.4106H29.1435L28.9435 25.8706H28.9335ZM22.3535 24.3906C22.3535 24.3906 22.5735 28.3206 26.3935 28.3206C30.2135 28.3206 30.4235 24.3906 30.4235 24.3906H22.3535Z" fill="white"/>
<path d="M26.3433 30.3506H32.6533" stroke="white" stroke-width="1.25" stroke-miterlimit="50"/>
<path d="M32.6533 29.2505V31.4105" stroke="white" stroke-width="1.25" stroke-miterlimit="50"/>
<path d="M39.1934 22.0407C39.1412 21.5617 38.9854 21.0998 38.7367 20.6871C38.488 20.2744 38.1525 19.9207 37.7534 19.6507C38.1634 18.4207 37.8034 17.0507 36.8434 16.1707C36.3675 15.7377 35.7784 15.4486 35.1447 15.3371C34.511 15.2256 33.8586 15.2962 33.2634 15.5407C33.0954 14.8853 32.7346 14.2954 32.2276 13.8474C31.7206 13.3993 31.0909 13.1137 30.4198 13.0275C29.7487 12.9414 29.0672 13.0586 28.4635 13.364C27.8597 13.6694 27.3616 14.149 27.0334 14.7407C26.4483 14.5249 25.8151 14.4742 25.2031 14.5941C24.5911 14.7141 24.0238 15 23.5634 15.4207C23.1076 15.8386 22.7779 16.3757 22.6118 16.9714C22.4457 17.567 22.4497 18.1972 22.6234 18.7907C22.003 19.0421 21.4728 19.4746 21.1019 20.0319C20.731 20.5891 20.5366 21.2452 20.5442 21.9146C20.5517 22.5839 20.7608 23.2355 21.1442 23.7842C21.5276 24.3329 22.0675 24.7534 22.6934 24.9907C22.8134 19.5907 26.6434 17.3407 29.8634 17.3407C33.1334 17.3407 37.0334 19.6707 37.0334 25.2507V25.5107C37.726 25.2529 38.3132 24.772 38.7025 24.1438C39.0917 23.5155 39.2609 22.7757 39.1834 22.0407H39.1934Z" fill="white"/>
<path d="M17.8236 18.3408C16.0775 18.3434 14.4033 19.0369 13.1667 20.2697C11.9301 21.5026 11.2316 23.1747 11.2236 24.9208V31.5308C11.2236 32.2008 11.8936 32.8908 13.2036 33.5808C14.6347 34.3167 16.1857 34.7908 17.7836 34.9808H17.8536C19.1936 34.8808 21.0836 34.3008 22.4436 33.5808C23.7436 32.8808 24.4136 32.2008 24.4136 31.5308V24.9208C24.4057 23.1747 23.7072 21.5026 22.4706 20.2697C21.234 19.0369 19.5598 18.3434 17.8136 18.3408H17.8236Z" fill="black"/>
<path d="M17.8236 18.3408C16.0775 18.3434 14.4033 19.0369 13.1667 20.2697C11.9301 21.5026 11.2316 23.1747 11.2236 24.9208V31.5308C11.2236 32.2008 11.8936 32.8908 13.2036 33.5808C14.6347 34.3167 16.1857 34.7908 17.7836 34.9808H17.8536C19.1936 34.8808 21.0836 34.3008 22.4436 33.5808C23.7436 32.8808 24.4136 32.2008 24.4136 31.5308V24.9208C24.4057 23.1747 23.7072 21.5026 22.4706 20.2697C21.234 19.0369 19.5598 18.3434 17.8136 18.3408H17.8236Z" stroke="black" stroke-width="4" stroke-miterlimit="50"/>
<path d="M17.8236 18.3408C16.0775 18.3434 14.4033 19.0369 13.1667 20.2697C11.9301 21.5026 11.2316 23.1747 11.2236 24.9208V31.5308C11.2236 32.2008 11.8936 32.8908 13.2036 33.5808C14.6347 34.3167 16.1857 34.7908 17.7836 34.9808H17.8536C19.1936 34.8808 21.0836 34.3008 22.4436 33.5808C23.7436 32.8808 24.4136 32.2008 24.4136 31.5308V24.9208C24.4057 23.1747 23.7072 21.5026 22.4706 20.2697C21.234 19.0369 19.5598 18.3434 17.8136 18.3408H17.8236Z" stroke="white" stroke-miterlimit="50"/>
<path d="M19.4934 21.5505C16.1634 19.9005 15.7134 16.4205 15.7134 16.4205C15.7134 16.4205 18.7134 15.3005 21.8034 16.8505C24.8834 18.4105 25.3434 21.6805 25.3434 21.6805C25.3434 21.6805 22.4934 23.0305 19.4834 21.5505H19.4934Z" fill="white"/>
<path d="M19.4934 21.5505C16.1634 19.9005 15.7134 16.4205 15.7134 16.4205C15.7134 16.4205 18.7134 15.3005 21.8034 16.8505C24.8834 18.4105 25.3434 21.6805 25.3434 21.6805C25.3434 21.6805 22.4934 23.0305 19.4834 21.5505H19.4934Z" stroke="black" stroke-width="4" stroke-miterlimit="50"/>
<path d="M11.2134 24.9206C11.2214 23.1745 11.9199 21.5024 13.1565 20.2695C14.3931 19.0367 16.0673 18.3432 17.8134 18.3406C18.1034 18.3406 18.3834 18.3606 18.6634 18.4006L19.8334 14.7506C19.8334 14.7506 13.9534 13.5306 10.7034 18.3506C8.84344 21.0806 9.00345 26.2806 9.00345 27.0506C9.00345 28.0106 9.64345 28.6306 10.6734 28.6306H11.2034L11.2134 24.9206Z" fill="white"/>
<path d="M20.9635 27.8206C18.7535 27.8206 18.0635 26.2506 17.8535 25.3906H24.0835C23.8735 26.2506 23.1835 27.8206 20.9635 27.8206Z" fill="white"/>
<path d="M23.3634 25.9008L23.2534 26.1008C22.7934 26.9108 22.0534 27.3009 20.9634 27.3009C19.9134 27.3009 19.1734 26.9308 18.7134 26.1508L18.5734 25.9008H23.3634ZM17.2534 24.8809C17.2534 24.8809 17.4534 28.3208 20.9634 28.3208C24.4834 28.3208 24.6834 24.8809 24.6834 24.8809H17.2534Z" fill="white"/>
<path d="M14.6632 27.8206C12.4532 27.8206 11.7632 26.2506 11.5532 25.3906H17.7832C17.5732 26.2506 16.8832 27.8206 14.6632 27.8206Z" fill="white"/>
<path d="M17.0636 25.9008L16.9536 26.1008C16.4936 26.9108 15.7536 27.3009 14.6636 27.3009C13.6136 27.3009 12.8736 26.9308 12.4136 26.1508L12.2736 25.9008H17.0636ZM18.3836 24.8809H10.9536C10.9536 24.8809 11.1536 28.3208 14.6636 28.3208C18.1836 28.3208 18.3836 24.8809 18.3836 24.8809Z" fill="white"/>
<path d="M12.8135 23.4609H16.5235" stroke="white" stroke-width="1.04" stroke-miterlimit="50"/>
<path d="M13.6636 30.5809H20.3436C20.7638 30.5803 21.1732 30.4473 21.5136 30.2009L22.6636 29.3809" stroke="white" stroke-width="1.04" stroke-miterlimit="50"/>
<defs>
<filter id="filter0_i_284_876" x="-1" y="0" width="48" height="51" filterUnits="userSpaceOnUse" color-interpolation-filters="sRGB">
<feFlood flood-opacity="0" result="BackgroundImageFix"/>
<feBlend mode="normal" in="SourceGraphic" in2="BackgroundImageFix" result="shape"/>
<feColorMatrix in="SourceAlpha" type="matrix" values="0 0 0 0 0 0 0 0 0 0 0 0 0 0 0 0 0 0 127 0" result="hardAlpha"/>
<feOffset dx="-1" dy="4"/>
<feGaussianBlur stdDeviation="2"/>
<feComposite in2="hardAlpha" operator="arithmetic" k2="-1" k3="1"/>
<feColorMatrix type="matrix" values="0 0 0 0 0 0 0 0 0 0 0 0 0 0 0 0 0 0 0.1 0"/>
<feBlend mode="normal" in2="shape" result="effect1_innerShadow_284_876"/>
</filter>
<linearGradient id="paint0_linear_284_876" x1="47" y1="-2.80142e-06" x2="2.80142e-06" y2="47" gradientUnits="userSpaceOnUse">
<stop stop-color="#CCCDD1"/>
<stop offset="1" stop-color="white"/>
</linearGradient>
</defs>
</svg>
