<svg width="23" height="23" viewBox="0 0 23 23" fill="none" xmlns="http://www.w3.org/2000/svg">
<g clip-path="url(#clip0_1_4150)">
<path d="M11.4999 22.3292C17.4807 22.3292 22.329 17.4809 22.329 11.5001C22.329 5.51928 17.4807 0.670898 11.4999 0.670898C5.5191 0.670898 0.670715 5.51928 0.670715 11.5001C0.670715 17.4809 5.5191 22.3292 11.4999 22.3292Z" stroke="#6ABC00" stroke-width="1.4375" stroke-miterlimit="10" stroke-linecap="round" stroke-linejoin="round"/>
<path d="M11.5 14.2793C8.14581 14.2793 5.27081 16.196 3.83331 19.071C5.74998 21.0835 8.52915 22.2335 11.5 22.2335C14.4708 22.2335 17.25 20.9876 19.1666 19.071C17.7291 16.2918 14.8541 14.2793 11.5 14.2793Z" stroke="#6ABC00" stroke-width="1.4375" stroke-miterlimit="10" stroke-linecap="round" stroke-linejoin="round"/>
<path d="M11.5 11.7877C13.4054 11.7877 14.95 10.2431 14.95 8.33769C14.95 6.43231 13.4054 4.8877 11.5 4.8877C9.59461 4.8877 8.04999 6.43231 8.04999 8.33769C8.04999 10.2431 9.59461 11.7877 11.5 11.7877Z" stroke="#6ABC00" stroke-width="1.4375" stroke-miterlimit="10" stroke-linecap="round" stroke-linejoin="round"/>
</g>
<defs>
<clipPath id="clip0_1_4150">
<rect width="23" height="23" fill="white"/>
</clipPath>
</defs>
</svg>
