<svg width="32" height="33" viewBox="0 0 32 33" fill="none" xmlns="http://www.w3.org/2000/svg">
<path d="M16 31.9336C24.2843 31.9336 31 25.2179 31 16.9336C31 8.64932 24.2843 1.93359 16 1.93359C7.71573 1.93359 1 8.64932 1 16.9336C1 25.2179 7.71573 31.9336 16 31.9336Z" stroke="#6ABC00" stroke-width="2" stroke-miterlimit="10" stroke-linecap="round" stroke-linejoin="round"/>
<path d="M16.0003 20.7832C11.3543 20.7832 7.37201 23.4381 5.38086 27.4204C8.03573 30.208 11.8853 31.8009 16.0003 31.8009C20.1154 31.8009 23.9649 30.0752 26.6198 27.4204C24.6286 23.5708 20.6463 20.7832 16.0003 20.7832Z" stroke="#6ABC00" stroke-width="2" stroke-miterlimit="10" stroke-linecap="round" stroke-linejoin="round"/>
<path d="M16 17.3319C18.6392 17.3319 20.7787 15.1924 20.7787 12.5532C20.7787 9.91394 18.6392 7.77441 16 7.77441C13.3607 7.77441 11.2212 9.91394 11.2212 12.5532C11.2212 15.1924 13.3607 17.3319 16 17.3319Z" stroke="#6ABC00" stroke-width="2" stroke-miterlimit="10" stroke-linecap="round" stroke-linejoin="round"/>
</svg>
